M48
; DRILL file {KiCad 9.0.7} date 2026-04-10T14:37:47+0200
; FORMAT={-:-/ absolute / inch / decimal}
; #@! TF.CreationDate,2026-04-10T14:37:47+02:00
; #@! TF.GenerationSoftware,Kicad,Pcbnew,9.0.7
; #@! TF.FileFunction,Plated,1,4,PTH
FMAT,2
INCH
; #@! TA.AperFunction,Plated,PTH,ViaDrill
T1C0.0118
; #@! TA.AperFunction,Plated,PTH,ViaDrill
T2C0.0157
; #@! TA.AperFunction,Plated,PTH,ComponentDrill
T3C0.0374
; #@! TA.AperFunction,Plated,PTH,ComponentDrill
T4C0.0394
%
G90
G05
T1
X5.9636Y-3.3258
X5.9685Y-4.5925
X6.0256Y-3.6841
X6.0315Y-3.5719
X6.0325Y-4.4803
X6.0404Y-4.0335
X6.0423Y-3.8386
X6.0433Y-4.3356
X6.0463Y-4.2431
X6.0492Y-3.9242
X6.0502Y-4.1358
X6.1201Y-3.7224
X6.1427Y-3.5856
X6.1811Y-3.6014
X6.188Y-3.9222
X6.2106Y-3.815
X6.2224Y-3.5679
X6.2239Y-3.4798
X6.2362Y-4.561
X6.2382Y-4.3524
X6.3051Y-4.1594
X6.3346Y-3.7047
X6.3671Y-3.8091
X6.3701Y-4.0384
X6.3976Y-3.6762
X6.4055Y-3.7687
X6.4124Y-4.1083
X6.5148Y-4.0236
X6.5177Y-3.9795
X6.5335Y-3.7795
X6.5404Y-4.2598
X6.5413Y-4.1073
X6.5423Y-3.7224
X6.5659Y-3.9596
X6.5846Y-3.8169
X6.5896Y-3.9587
X6.6043Y-4.1614
X6.623Y-4.1043
X6.6467Y-4.3671
X6.6476Y-4.2825
X6.6703Y-4.1634
X6.686Y-3.3199
X6.7234Y-4.1594
X6.7736Y-4.1673
X6.8484Y-4.1585
X6.8819Y-4.3848
X6.8868Y-4.3022
X6.9183Y-4.0994
X6.9321Y-4.1604
X6.9409Y-3.815
X6.9429Y-3.935
X6.9724Y-3.9331
X6.9734Y-4.2638
X6.9744Y-3.8465
X6.9744Y-3.874
X6.9744Y-3.9035
X6.9843Y-3.7835
X6.9872Y-3.7274
X6.9961Y-4.3455
X7.1132Y-3.8061
X7.1161Y-3.751
X7.1181Y-3.6201
X7.1201Y-3.6791
X7.2736Y-3.6831
X7.3189Y-3.7283
X7.3268Y-3.5531
X7.377Y-4.5886
X7.3799Y-3.3258
T2
X6.8533Y-3.6112
X7.0049Y-3.4882
T3
X6.063Y-3.4439
X6.1614Y-3.4439
X6.2598Y-3.4439
X6.6614Y-3.437
X6.7598Y-3.437
X6.8583Y-3.437
X6.9567Y-3.437
X7.0551Y-3.437
T4
X6.1024Y-3.7795
X6.1024Y-3.8795
X6.1024Y-3.9795
X6.1024Y-4.0795
X6.1024Y-4.1795
X6.1024Y-4.2795
X6.1024Y-4.3795
X6.1024Y-4.4795
X7.0472Y-3.7795
X7.0472Y-3.8795
X7.0472Y-3.9795
X7.0472Y-4.0795
X7.0472Y-4.1795
X7.0472Y-4.2795
X7.0472Y-4.3795
X7.0472Y-4.4795
M30
