%TF.GenerationSoftware,KiCad,Pcbnew,9.0.7*%
%TF.CreationDate,2026-04-14T02:02:05+02:00*%
%TF.ProjectId,split_flap_unit,73706c69-745f-4666-9c61-705f756e6974,rev?*%
%TF.SameCoordinates,Original*%
%TF.FileFunction,Copper,L4,Bot*%
%TF.FilePolarity,Positive*%
%FSLAX46Y46*%
G04 Gerber Fmt 4.6, Leading zero omitted, Abs format (unit mm)*
G04 Created by KiCad (PCBNEW 9.0.7) date 2026-04-14 02:02:05*
%MOMM*%
%LPD*%
G01*
G04 APERTURE LIST*
G04 Aperture macros list*
%AMRoundRect*
0 Rectangle with rounded corners*
0 $1 Rounding radius*
0 $2 $3 $4 $5 $6 $7 $8 $9 X,Y pos of 4 corners*
0 Add a 4 corners polygon primitive as box body*
4,1,4,$2,$3,$4,$5,$6,$7,$8,$9,$2,$3,0*
0 Add four circle primitives for the rounded corners*
1,1,$1+$1,$2,$3*
1,1,$1+$1,$4,$5*
1,1,$1+$1,$6,$7*
1,1,$1+$1,$8,$9*
0 Add four rect primitives between the rounded corners*
20,1,$1+$1,$2,$3,$4,$5,0*
20,1,$1+$1,$4,$5,$6,$7,0*
20,1,$1+$1,$6,$7,$8,$9,0*
20,1,$1+$1,$8,$9,$2,$3,0*%
G04 Aperture macros list end*
%TA.AperFunction,ComponentPad*%
%ADD10RoundRect,0.250000X-0.600000X-0.725000X0.600000X-0.725000X0.600000X0.725000X-0.600000X0.725000X0*%
%TD*%
%TA.AperFunction,ComponentPad*%
%ADD11O,1.700000X1.950000*%
%TD*%
%TA.AperFunction,ComponentPad*%
%ADD12R,1.700000X1.700000*%
%TD*%
%TA.AperFunction,ComponentPad*%
%ADD13C,1.700000*%
%TD*%
%TA.AperFunction,ViaPad*%
%ADD14C,0.500000*%
%TD*%
%TA.AperFunction,ViaPad*%
%ADD15C,0.800000*%
%TD*%
%TA.AperFunction,Conductor*%
%ADD16C,0.200000*%
%TD*%
G04 APERTURE END LIST*
D10*
%TO.P,J3,1,Pin_1*%
%TO.N,Net-(IC1-OUT_1)*%
X169200000Y-87300000D03*
D11*
%TO.P,J3,2,Pin_2*%
%TO.N,Net-(IC1-OUT_2)*%
X171700000Y-87300000D03*
%TO.P,J3,3,Pin_3*%
%TO.N,Net-(IC1-OUT_3)*%
X174200000Y-87300000D03*
%TO.P,J3,4,Pin_4*%
%TO.N,Net-(IC1-OUT_4)*%
X176700000Y-87300000D03*
%TO.P,J3,5,Pin_5*%
%TO.N,+5V*%
X179200000Y-87300000D03*
%TD*%
D12*
%TO.P,J4,1,Pin_1*%
%TO.N,GND*%
X179000000Y-113780000D03*
D13*
%TO.P,J4,2,Pin_2*%
%TO.N,+5V*%
X179000000Y-111240000D03*
%TO.P,J4,3,Pin_3*%
%TO.N,+3.3V*%
X179000000Y-108700000D03*
%TO.P,J4,4,Pin_4*%
%TO.N,/SCK*%
X179000000Y-106160000D03*
%TO.P,J4,5,Pin_5*%
%TO.N,/LATCH_OUT*%
X179000000Y-103620000D03*
%TO.P,J4,6,Pin_6*%
%TO.N,/LOAD_IN*%
X179000000Y-101080000D03*
%TO.P,J4,7,Pin_7*%
%TO.N,/MOSI_OUT*%
X179000000Y-98540000D03*
%TO.P,J4,8,Pin_8*%
%TO.N,/MISO_IN*%
X179000000Y-96000000D03*
%TD*%
D12*
%TO.P,J1,1,Pin_1*%
%TO.N,GND*%
X155000000Y-113780000D03*
D13*
%TO.P,J1,2,Pin_2*%
%TO.N,+5V*%
X155000000Y-111240000D03*
%TO.P,J1,3,Pin_3*%
%TO.N,+3.3V*%
X155000000Y-108700000D03*
%TO.P,J1,4,Pin_4*%
%TO.N,/SCK*%
X155000000Y-106160000D03*
%TO.P,J1,5,Pin_5*%
%TO.N,/LATCH_OUT*%
X155000000Y-103620000D03*
%TO.P,J1,6,Pin_6*%
%TO.N,/LOAD_IN*%
X155000000Y-101080000D03*
%TO.P,J1,7,Pin_7*%
%TO.N,/MOSI_IN*%
X155000000Y-98540000D03*
%TO.P,J1,8,Pin_8*%
%TO.N,/MISO_OUT*%
X155000000Y-96000000D03*
%TD*%
D10*
%TO.P,J2,1,Pin_1*%
%TO.N,Net-(J2-Pin_1)*%
X154000000Y-87475000D03*
D11*
%TO.P,J2,2,Pin_2*%
%TO.N,GND*%
X156500000Y-87475000D03*
%TO.P,J2,3,Pin_3*%
%TO.N,+3.3V*%
X159000000Y-87475000D03*
%TD*%
D14*
%TO.N,+5V*%
X153500000Y-110125000D03*
X158450000Y-110550000D03*
%TO.N,GND*%
X168225000Y-104250000D03*
X156025000Y-91075000D03*
X177475000Y-94675000D03*
X187450000Y-84475000D03*
X177125000Y-108300000D03*
X153650000Y-99675000D03*
X153050000Y-93575000D03*
X166775000Y-100575000D03*
X187375000Y-116550000D03*
X166175000Y-94550000D03*
X167250000Y-96950000D03*
X173950000Y-105625000D03*
X177100000Y-99900000D03*
X168975000Y-109075000D03*
X162700000Y-95725000D03*
X161725000Y-96750000D03*
X184750000Y-93550000D03*
X177700000Y-110375000D03*
X185900000Y-94700000D03*
X160150000Y-105650000D03*
X153475000Y-97500000D03*
X162500000Y-93375000D03*
X169825000Y-84325000D03*
X180675000Y-96675000D03*
X176350000Y-99950000D03*
X166125000Y-108200000D03*
D15*
X177925000Y-88600000D03*
D14*
X177400000Y-96100000D03*
X155450000Y-94550000D03*
X168825000Y-110925000D03*
X177150000Y-98400000D03*
X180850000Y-93450000D03*
X153675000Y-105050000D03*
X157750000Y-96900000D03*
X151600000Y-116650000D03*
D15*
X174075000Y-91725000D03*
D14*
X151475000Y-84475000D03*
X165950000Y-96000000D03*
X177150000Y-97700000D03*
X153575000Y-107775000D03*
X172050000Y-105850000D03*
X176300000Y-96900000D03*
X162875000Y-104350000D03*
X158050000Y-90625000D03*
X167375000Y-100550000D03*
X167750000Y-105700000D03*
X180800000Y-91950000D03*
X175725000Y-104125000D03*
X177150000Y-99150000D03*
X158400000Y-115850000D03*
X180750000Y-95275000D03*
X176075000Y-105675000D03*
X157175000Y-99625000D03*
X186100000Y-90250000D03*
X174800000Y-111375000D03*
X160900000Y-94100000D03*
X165475000Y-102200000D03*
X153200000Y-90725000D03*
X153225000Y-113800000D03*
X153425000Y-102450000D03*
%TO.N,+3.3V*%
X157000000Y-91475000D03*
X161800000Y-102575000D03*
X174925000Y-109275000D03*
X168250000Y-108550000D03*
X158087500Y-88387500D03*
%TO.N,/LATCH_OUT*%
X170775000Y-105650000D03*
%TO.N,/LOAD_IN*%
X165550000Y-101080000D03*
%TO.N,/SCK*%
X169425000Y-105750000D03*
X166150000Y-104325000D03*
%TD*%
D16*
%TO.N,/LATCH_OUT*%
X155000000Y-103620000D02*
X170775000Y-103620000D01*
X170775000Y-103620000D02*
X170775000Y-105650000D01*
X170775000Y-103620000D02*
X179000000Y-103620000D01*
%TO.N,/LOAD_IN*%
X155000000Y-101080000D02*
X165550000Y-101080000D01*
X165550000Y-101080000D02*
X179000000Y-101080000D01*
%TO.N,/SCK*%
X162800000Y-106431000D02*
X155271000Y-106431000D01*
X166150000Y-104325000D02*
X167356000Y-104325000D01*
X169425000Y-106431000D02*
X178729000Y-106431000D01*
X178729000Y-106431000D02*
X179000000Y-106160000D01*
X155271000Y-106431000D02*
X155000000Y-106160000D01*
X167356000Y-104325000D02*
X169425000Y-106394000D01*
X169425000Y-106394000D02*
X169425000Y-106431000D01*
X169425000Y-106431000D02*
X169425000Y-105750000D01*
X164906000Y-104325000D02*
X162800000Y-106431000D01*
X166150000Y-104325000D02*
X164906000Y-104325000D01*
%TD*%
%TA.AperFunction,Conductor*%
%TO.N,GND*%
G36*
X170467539Y-103890185D02*
G01*
X170513294Y-103942989D01*
X170524500Y-103994500D01*
X170524500Y-105145107D01*
X170504815Y-105212146D01*
X170472739Y-105242732D01*
X170474135Y-105244552D01*
X170467683Y-105249502D01*
X170374502Y-105342683D01*
X170374500Y-105342686D01*
X170308608Y-105456812D01*
X170274500Y-105584108D01*
X170274500Y-105715891D01*
X170308608Y-105843187D01*
X170341554Y-105900250D01*
X170374500Y-105957314D01*
X170374502Y-105957316D01*
X170386005Y-105968819D01*
X170419490Y-106030142D01*
X170414506Y-106099834D01*
X170372634Y-106155767D01*
X170307170Y-106180184D01*
X170298324Y-106180500D01*
X169969153Y-106180500D01*
X169902114Y-106160815D01*
X169856359Y-106108011D01*
X169846415Y-106038853D01*
X169861766Y-105994499D01*
X169891392Y-105943186D01*
X169925500Y-105815892D01*
X169925500Y-105684108D01*
X169891392Y-105556814D01*
X169825500Y-105442686D01*
X169732314Y-105349500D01*
X169675250Y-105316554D01*
X169618187Y-105283608D01*
X169554539Y-105266554D01*
X169490892Y-105249500D01*
X169359108Y-105249500D01*
X169231812Y-105283608D01*
X169117686Y-105349500D01*
X169117683Y-105349502D01*
X169018753Y-105448433D01*
X169017615Y-105447295D01*
X168968790Y-105482934D01*
X168899043Y-105487077D01*
X168839180Y-105453919D01*
X167497898Y-104112637D01*
X167497897Y-104112636D01*
X167497892Y-104112634D01*
X167489266Y-104109061D01*
X167434862Y-104065220D01*
X167412797Y-103998926D01*
X167430076Y-103931227D01*
X167481213Y-103883616D01*
X167536718Y-103870500D01*
X170400500Y-103870500D01*
X170467539Y-103890185D01*
G37*
%TD.AperFunction*%
%TA.AperFunction,Conductor*%
G36*
X187943039Y-84019685D02*
G01*
X187988794Y-84072489D01*
X188000000Y-84124000D01*
X188000000Y-116876000D01*
X187980315Y-116943039D01*
X187927511Y-116988794D01*
X187876000Y-117000000D01*
X151124000Y-117000000D01*
X151056961Y-116980315D01*
X151011206Y-116927511D01*
X151000000Y-116876000D01*
X151000000Y-112882155D01*
X153650000Y-112882155D01*
X153650000Y-113530000D01*
X154566988Y-113530000D01*
X154534075Y-113587007D01*
X154500000Y-113714174D01*
X154500000Y-113845826D01*
X154534075Y-113972993D01*
X154566988Y-114030000D01*
X153650000Y-114030000D01*
X153650000Y-114677844D01*
X153656401Y-114737372D01*
X153656403Y-114737379D01*
X153706645Y-114872086D01*
X153706649Y-114872093D01*
X153792809Y-114987187D01*
X153792812Y-114987190D01*
X153907906Y-115073350D01*
X153907913Y-115073354D01*
X154042620Y-115123596D01*
X154042627Y-115123598D01*
X154102155Y-115129999D01*
X154102172Y-115130000D01*
X154750000Y-115130000D01*
X154750000Y-114213012D01*
X154807007Y-114245925D01*
X154934174Y-114280000D01*
X155065826Y-114280000D01*
X155192993Y-114245925D01*
X155250000Y-114213012D01*
X155250000Y-115130000D01*
X155897828Y-115130000D01*
X155897844Y-115129999D01*
X155957372Y-115123598D01*
X155957379Y-115123596D01*
X156092086Y-115073354D01*
X156092093Y-115073350D01*
X156207187Y-114987190D01*
X156207190Y-114987187D01*
X156293350Y-114872093D01*
X156293354Y-114872086D01*
X156343596Y-114737379D01*
X156343598Y-114737372D01*
X156349999Y-114677844D01*
X156350000Y-114677827D01*
X156350000Y-114030000D01*
X155433012Y-114030000D01*
X155465925Y-113972993D01*
X155500000Y-113845826D01*
X155500000Y-113714174D01*
X155465925Y-113587007D01*
X155433012Y-113530000D01*
X156350000Y-113530000D01*
X156350000Y-112882172D01*
X156349999Y-112882155D01*
X177650000Y-112882155D01*
X177650000Y-113530000D01*
X178566988Y-113530000D01*
X178534075Y-113587007D01*
X178500000Y-113714174D01*
X178500000Y-113845826D01*
X178534075Y-113972993D01*
X178566988Y-114030000D01*
X177650000Y-114030000D01*
X177650000Y-114677844D01*
X177656401Y-114737372D01*
X177656403Y-114737379D01*
X177706645Y-114872086D01*
X177706649Y-114872093D01*
X177792809Y-114987187D01*
X177792812Y-114987190D01*
X177907906Y-115073350D01*
X177907913Y-115073354D01*
X178042620Y-115123596D01*
X178042627Y-115123598D01*
X178102155Y-115129999D01*
X178102172Y-115130000D01*
X178750000Y-115130000D01*
X178750000Y-114213012D01*
X178807007Y-114245925D01*
X178934174Y-114280000D01*
X179065826Y-114280000D01*
X179192993Y-114245925D01*
X179250000Y-114213012D01*
X179250000Y-115130000D01*
X179897828Y-115130000D01*
X179897844Y-115129999D01*
X179957372Y-115123598D01*
X179957379Y-115123596D01*
X180092086Y-115073354D01*
X180092093Y-115073350D01*
X180207187Y-114987190D01*
X180207190Y-114987187D01*
X180293350Y-114872093D01*
X180293354Y-114872086D01*
X180343596Y-114737379D01*
X180343598Y-114737372D01*
X180349999Y-114677844D01*
X180350000Y-114677827D01*
X180350000Y-114030000D01*
X179433012Y-114030000D01*
X179465925Y-113972993D01*
X179500000Y-113845826D01*
X179500000Y-113714174D01*
X179465925Y-113587007D01*
X179433012Y-113530000D01*
X180350000Y-113530000D01*
X180350000Y-112882172D01*
X180349999Y-112882155D01*
X180343598Y-112822627D01*
X180343596Y-112822620D01*
X180293354Y-112687913D01*
X180293350Y-112687906D01*
X180207190Y-112572812D01*
X180207187Y-112572809D01*
X180092093Y-112486649D01*
X180092086Y-112486645D01*
X179957379Y-112436403D01*
X179957372Y-112436401D01*
X179897844Y-112430000D01*
X179605051Y-112430000D01*
X179538012Y-112410315D01*
X179492257Y-112357511D01*
X179482313Y-112288353D01*
X179511338Y-112224797D01*
X179548756Y-112195515D01*
X179551471Y-112194131D01*
X179576788Y-112181232D01*
X179716928Y-112079414D01*
X179839414Y-111956928D01*
X179941232Y-111816788D01*
X180019873Y-111662445D01*
X180073402Y-111497701D01*
X180100500Y-111326611D01*
X180100500Y-111153389D01*
X180073402Y-110982299D01*
X180019873Y-110817555D01*
X179941232Y-110663212D01*
X179839414Y-110523072D01*
X179716928Y-110400586D01*
X179576788Y-110298768D01*
X179422445Y-110220127D01*
X179257701Y-110166598D01*
X179257699Y-110166597D01*
X179257698Y-110166597D01*
X179126271Y-110145781D01*
X179086611Y-110139500D01*
X178913389Y-110139500D01*
X178873728Y-110145781D01*
X178742302Y-110166597D01*
X178577552Y-110220128D01*
X178423211Y-110298768D01*
X178343322Y-110356812D01*
X178283072Y-110400586D01*
X178283070Y-110400588D01*
X178283069Y-110400588D01*
X178160588Y-110523069D01*
X178160588Y-110523070D01*
X178160586Y-110523072D01*
X178158823Y-110525499D01*
X178058768Y-110663211D01*
X177980128Y-110817552D01*
X177926597Y-110982302D01*
X177921198Y-111016391D01*
X177899500Y-111153389D01*
X177899500Y-111326611D01*
X177926598Y-111497701D01*
X177980127Y-111662445D01*
X178058768Y-111816788D01*
X178160586Y-111956928D01*
X178283072Y-112079414D01*
X178423212Y-112181232D01*
X178446213Y-112192951D01*
X178451244Y-112195515D01*
X178502040Y-112243490D01*
X178518835Y-112311311D01*
X178496297Y-112377446D01*
X178441582Y-112420897D01*
X178394949Y-112430000D01*
X178102155Y-112430000D01*
X178042627Y-112436401D01*
X178042620Y-112436403D01*
X177907913Y-112486645D01*
X177907906Y-112486649D01*
X177792812Y-112572809D01*
X177792809Y-112572812D01*
X177706649Y-112687906D01*
X177706645Y-112687913D01*
X177656403Y-112822620D01*
X177656401Y-112822627D01*
X177650000Y-112882155D01*
X156349999Y-112882155D01*
X156343598Y-112822627D01*
X156343596Y-112822620D01*
X156293354Y-112687913D01*
X156293350Y-112687906D01*
X156207190Y-112572812D01*
X156207187Y-112572809D01*
X156092093Y-112486649D01*
X156092086Y-112486645D01*
X155957379Y-112436403D01*
X155957372Y-112436401D01*
X155897844Y-112430000D01*
X155605051Y-112430000D01*
X155538012Y-112410315D01*
X155492257Y-112357511D01*
X155482313Y-112288353D01*
X155511338Y-112224797D01*
X155548756Y-112195515D01*
X155551471Y-112194131D01*
X155576788Y-112181232D01*
X155716928Y-112079414D01*
X155839414Y-111956928D01*
X155941232Y-111816788D01*
X156019873Y-111662445D01*
X156073402Y-111497701D01*
X156100500Y-111326611D01*
X156100500Y-111153389D01*
X156073402Y-110982299D01*
X156019873Y-110817555D01*
X155941232Y-110663212D01*
X155839414Y-110523072D01*
X155800450Y-110484108D01*
X157949500Y-110484108D01*
X157949500Y-110615892D01*
X157962179Y-110663211D01*
X157983608Y-110743187D01*
X158016554Y-110800250D01*
X158049500Y-110857314D01*
X158142686Y-110950500D01*
X158256814Y-111016392D01*
X158384108Y-111050500D01*
X158384110Y-111050500D01*
X158515890Y-111050500D01*
X158515892Y-111050500D01*
X158643186Y-111016392D01*
X158757314Y-110950500D01*
X158850500Y-110857314D01*
X158916392Y-110743186D01*
X158950500Y-110615892D01*
X158950500Y-110484108D01*
X158916392Y-110356814D01*
X158850500Y-110242686D01*
X158757314Y-110149500D01*
X158700250Y-110116554D01*
X158643187Y-110083608D01*
X158551757Y-110059110D01*
X158515892Y-110049500D01*
X158384108Y-110049500D01*
X158256812Y-110083608D01*
X158142686Y-110149500D01*
X158142683Y-110149502D01*
X158049502Y-110242683D01*
X158049500Y-110242686D01*
X157983608Y-110356812D01*
X157971879Y-110400586D01*
X157949500Y-110484108D01*
X155800450Y-110484108D01*
X155716928Y-110400586D01*
X155576788Y-110298768D01*
X155422445Y-110220127D01*
X155257701Y-110166598D01*
X155257699Y-110166597D01*
X155257698Y-110166597D01*
X155126271Y-110145781D01*
X155086611Y-110139500D01*
X154913389Y-110139500D01*
X154873728Y-110145781D01*
X154742302Y-110166597D01*
X154577552Y-110220128D01*
X154423211Y-110298768D01*
X154343322Y-110356812D01*
X154283072Y-110400586D01*
X154283070Y-110400588D01*
X154283069Y-110400588D01*
X154160588Y-110523069D01*
X154160588Y-110523070D01*
X154160586Y-110523072D01*
X154158823Y-110525499D01*
X154058768Y-110663211D01*
X153980128Y-110817552D01*
X153926597Y-110982302D01*
X153921198Y-111016391D01*
X153899500Y-111153389D01*
X153899500Y-111326611D01*
X153926598Y-111497701D01*
X153980127Y-111662445D01*
X154058768Y-111816788D01*
X154160586Y-111956928D01*
X154283072Y-112079414D01*
X154423212Y-112181232D01*
X154446213Y-112192951D01*
X154451244Y-112195515D01*
X154502040Y-112243490D01*
X154518835Y-112311311D01*
X154496297Y-112377446D01*
X154441582Y-112420897D01*
X154394949Y-112430000D01*
X154102155Y-112430000D01*
X154042627Y-112436401D01*
X154042620Y-112436403D01*
X153907913Y-112486645D01*
X153907906Y-112486649D01*
X153792812Y-112572809D01*
X153792809Y-112572812D01*
X153706649Y-112687906D01*
X153706645Y-112687913D01*
X153656403Y-112822620D01*
X153656401Y-112822627D01*
X153650000Y-112882155D01*
X151000000Y-112882155D01*
X151000000Y-110059108D01*
X152999500Y-110059108D01*
X152999500Y-110190892D01*
X153007334Y-110220128D01*
X153033608Y-110318187D01*
X153055909Y-110356812D01*
X153099500Y-110432314D01*
X153192686Y-110525500D01*
X153306814Y-110591392D01*
X153434108Y-110625500D01*
X153434110Y-110625500D01*
X153565890Y-110625500D01*
X153565892Y-110625500D01*
X153693186Y-110591392D01*
X153807314Y-110525500D01*
X153900500Y-110432314D01*
X153966392Y-110318186D01*
X154000500Y-110190892D01*
X154000500Y-110059108D01*
X153966392Y-109931814D01*
X153900500Y-109817686D01*
X153807314Y-109724500D01*
X153722439Y-109675497D01*
X153693187Y-109658608D01*
X153628334Y-109641231D01*
X153565892Y-109624500D01*
X153434108Y-109624500D01*
X153306812Y-109658608D01*
X153192686Y-109724500D01*
X153192683Y-109724502D01*
X153099502Y-109817683D01*
X153099500Y-109817686D01*
X153033608Y-109931812D01*
X153002074Y-110049500D01*
X152999500Y-110059108D01*
X151000000Y-110059108D01*
X151000000Y-108613389D01*
X153899500Y-108613389D01*
X153899500Y-108786610D01*
X153913420Y-108874502D01*
X153926598Y-108957701D01*
X153980127Y-109122445D01*
X154058768Y-109276788D01*
X154160586Y-109416928D01*
X154283072Y-109539414D01*
X154423212Y-109641232D01*
X154577555Y-109719873D01*
X154742299Y-109773402D01*
X154913389Y-109800500D01*
X154913390Y-109800500D01*
X155086610Y-109800500D01*
X155086611Y-109800500D01*
X155257701Y-109773402D01*
X155422445Y-109719873D01*
X155576788Y-109641232D01*
X155716928Y-109539414D01*
X155839414Y-109416928D01*
X155941232Y-109276788D01*
X155975716Y-109209108D01*
X174424500Y-109209108D01*
X174424500Y-109340891D01*
X174458608Y-109468187D01*
X174491554Y-109525250D01*
X174524500Y-109582314D01*
X174617686Y-109675500D01*
X174731814Y-109741392D01*
X174859108Y-109775500D01*
X174859110Y-109775500D01*
X174990890Y-109775500D01*
X174990892Y-109775500D01*
X175118186Y-109741392D01*
X175232314Y-109675500D01*
X175325500Y-109582314D01*
X175391392Y-109468186D01*
X175425500Y-109340892D01*
X175425500Y-109209108D01*
X175391392Y-109081814D01*
X175325500Y-108967686D01*
X175232314Y-108874500D01*
X175175250Y-108841554D01*
X175118187Y-108808608D01*
X175036091Y-108786611D01*
X174990892Y-108774500D01*
X174859108Y-108774500D01*
X174731812Y-108808608D01*
X174617686Y-108874500D01*
X174617683Y-108874502D01*
X174524502Y-108967683D01*
X174524500Y-108967686D01*
X174458608Y-109081812D01*
X174424500Y-109209108D01*
X155975716Y-109209108D01*
X156019873Y-109122445D01*
X156073402Y-108957701D01*
X156100500Y-108786611D01*
X156100500Y-108613389D01*
X156080024Y-108484108D01*
X167749500Y-108484108D01*
X167749500Y-108615891D01*
X167783608Y-108743187D01*
X167801687Y-108774500D01*
X167849500Y-108857314D01*
X167942686Y-108950500D01*
X168056814Y-109016392D01*
X168184108Y-109050500D01*
X168184110Y-109050500D01*
X168315890Y-109050500D01*
X168315892Y-109050500D01*
X168443186Y-109016392D01*
X168557314Y-108950500D01*
X168650500Y-108857314D01*
X168716392Y-108743186D01*
X168750500Y-108615892D01*
X168750500Y-108613389D01*
X177899500Y-108613389D01*
X177899500Y-108786610D01*
X177913420Y-108874502D01*
X177926598Y-108957701D01*
X177980127Y-109122445D01*
X178058768Y-109276788D01*
X178160586Y-109416928D01*
X178283072Y-109539414D01*
X178423212Y-109641232D01*
X178577555Y-109719873D01*
X178742299Y-109773402D01*
X178913389Y-109800500D01*
X178913390Y-109800500D01*
X179086610Y-109800500D01*
X179086611Y-109800500D01*
X179257701Y-109773402D01*
X179422445Y-109719873D01*
X179576788Y-109641232D01*
X179716928Y-109539414D01*
X179839414Y-109416928D01*
X179941232Y-109276788D01*
X180019873Y-109122445D01*
X180073402Y-108957701D01*
X180100500Y-108786611D01*
X180100500Y-108613389D01*
X180073402Y-108442299D01*
X180019873Y-108277555D01*
X179941232Y-108123212D01*
X179839414Y-107983072D01*
X179716928Y-107860586D01*
X179576788Y-107758768D01*
X179422445Y-107680127D01*
X179257701Y-107626598D01*
X179257699Y-107626597D01*
X179257698Y-107626597D01*
X179126271Y-107605781D01*
X179086611Y-107599500D01*
X178913389Y-107599500D01*
X178873728Y-107605781D01*
X178742302Y-107626597D01*
X178577552Y-107680128D01*
X178423211Y-107758768D01*
X178343256Y-107816859D01*
X178283072Y-107860586D01*
X178283070Y-107860588D01*
X178283069Y-107860588D01*
X178160588Y-107983069D01*
X178160588Y-107983070D01*
X178160586Y-107983072D01*
X178116859Y-108043256D01*
X178058768Y-108123211D01*
X177980128Y-108277552D01*
X177926597Y-108442302D01*
X177899500Y-108613389D01*
X168750500Y-108613389D01*
X168750500Y-108484108D01*
X168716392Y-108356814D01*
X168650500Y-108242686D01*
X168557314Y-108149500D01*
X168500250Y-108116554D01*
X168443187Y-108083608D01*
X168379539Y-108066554D01*
X168315892Y-108049500D01*
X168184108Y-108049500D01*
X168056812Y-108083608D01*
X167942686Y-108149500D01*
X167942683Y-108149502D01*
X167849502Y-108242683D01*
X167849500Y-108242686D01*
X167783608Y-108356812D01*
X167749500Y-108484108D01*
X156080024Y-108484108D01*
X156073402Y-108442299D01*
X156019873Y-108277555D01*
X155941232Y-108123212D01*
X155839414Y-107983072D01*
X155716928Y-107860586D01*
X155576788Y-107758768D01*
X155422445Y-107680127D01*
X155257701Y-107626598D01*
X155257699Y-107626597D01*
X155257698Y-107626597D01*
X155126271Y-107605781D01*
X155086611Y-107599500D01*
X154913389Y-107599500D01*
X154873728Y-107605781D01*
X154742302Y-107626597D01*
X154577552Y-107680128D01*
X154423211Y-107758768D01*
X154343256Y-107816859D01*
X154283072Y-107860586D01*
X154283070Y-107860588D01*
X154283069Y-107860588D01*
X154160588Y-107983069D01*
X154160588Y-107983070D01*
X154160586Y-107983072D01*
X154116859Y-108043256D01*
X154058768Y-108123211D01*
X153980128Y-108277552D01*
X153926597Y-108442302D01*
X153899500Y-108613389D01*
X151000000Y-108613389D01*
X151000000Y-103533389D01*
X153899500Y-103533389D01*
X153899500Y-103706611D01*
X153926598Y-103877701D01*
X153980127Y-104042445D01*
X154058768Y-104196788D01*
X154160586Y-104336928D01*
X154283072Y-104459414D01*
X154423212Y-104561232D01*
X154577555Y-104639873D01*
X154742299Y-104693402D01*
X154913389Y-104720500D01*
X154913390Y-104720500D01*
X155086610Y-104720500D01*
X155086611Y-104720500D01*
X155257701Y-104693402D01*
X155422445Y-104639873D01*
X155576788Y-104561232D01*
X155716928Y-104459414D01*
X155839414Y-104336928D01*
X155941232Y-104196788D01*
X156019873Y-104042445D01*
X156047902Y-103956180D01*
X156087340Y-103898506D01*
X156151699Y-103871308D01*
X156165833Y-103870500D01*
X164725281Y-103870500D01*
X164792320Y-103890185D01*
X164838075Y-103942989D01*
X164848019Y-104012147D01*
X164818994Y-104075703D01*
X164772735Y-104109060D01*
X164764105Y-104112634D01*
X164764101Y-104112637D01*
X162732558Y-106144181D01*
X162671235Y-106177666D01*
X162644877Y-106180500D01*
X156223370Y-106180500D01*
X156156331Y-106160815D01*
X156110576Y-106108011D01*
X156100897Y-106075898D01*
X156096874Y-106050500D01*
X156073402Y-105902299D01*
X156019873Y-105737555D01*
X155941232Y-105583212D01*
X155839414Y-105443072D01*
X155716928Y-105320586D01*
X155576788Y-105218768D01*
X155422445Y-105140127D01*
X155257701Y-105086598D01*
X155257699Y-105086597D01*
X155257698Y-105086597D01*
X155126271Y-105065781D01*
X155086611Y-105059500D01*
X154913389Y-105059500D01*
X154873728Y-105065781D01*
X154742302Y-105086597D01*
X154577552Y-105140128D01*
X154423211Y-105218768D01*
X154390228Y-105242732D01*
X154283072Y-105320586D01*
X154283070Y-105320588D01*
X154283069Y-105320588D01*
X154160588Y-105443069D01*
X154160588Y-105443070D01*
X154160586Y-105443072D01*
X154116859Y-105503256D01*
X154058768Y-105583211D01*
X153980128Y-105737552D01*
X153926597Y-105902302D01*
X153917884Y-105957314D01*
X153899500Y-106073389D01*
X153899500Y-106246611D01*
X153926598Y-106417701D01*
X153963904Y-106532517D01*
X153980128Y-106582447D01*
X154030597Y-106681499D01*
X154058768Y-106736788D01*
X154160586Y-106876928D01*
X154283072Y-106999414D01*
X154423212Y-107101232D01*
X154577555Y-107179873D01*
X154742299Y-107233402D01*
X154913389Y-107260500D01*
X154913390Y-107260500D01*
X155086610Y-107260500D01*
X155086611Y-107260500D01*
X155257701Y-107233402D01*
X155422445Y-107179873D01*
X155576788Y-107101232D01*
X155716928Y-106999414D01*
X155839414Y-106876928D01*
X155941232Y-106736788D01*
X155941232Y-106736787D01*
X155944096Y-106732846D01*
X155946006Y-106734233D01*
X155990581Y-106693864D01*
X156044556Y-106681500D01*
X162849826Y-106681500D01*
X162849828Y-106681500D01*
X162941897Y-106643364D01*
X164973441Y-104611818D01*
X165034764Y-104578334D01*
X165061122Y-104575500D01*
X165645107Y-104575500D01*
X165712146Y-104595185D01*
X165742732Y-104627260D01*
X165744552Y-104625865D01*
X165749498Y-104632311D01*
X165749500Y-104632314D01*
X165842686Y-104725500D01*
X165956814Y-104791392D01*
X166084108Y-104825500D01*
X166084110Y-104825500D01*
X166215890Y-104825500D01*
X166215892Y-104825500D01*
X166343186Y-104791392D01*
X166457314Y-104725500D01*
X166550500Y-104632314D01*
X166550504Y-104632306D01*
X166555448Y-104625865D01*
X166557807Y-104627675D01*
X166598080Y-104589280D01*
X166654893Y-104575500D01*
X167200877Y-104575500D01*
X167267916Y-104595185D01*
X167288558Y-104611819D01*
X169169030Y-106492290D01*
X169195909Y-106532517D01*
X169212634Y-106572894D01*
X169212635Y-106572896D01*
X169212636Y-106572897D01*
X169283103Y-106643364D01*
X169375172Y-106681500D01*
X169474828Y-106681500D01*
X177955444Y-106681500D01*
X178022483Y-106701185D01*
X178054474Y-106733884D01*
X178055904Y-106732846D01*
X178058767Y-106736787D01*
X178058768Y-106736788D01*
X178160586Y-106876928D01*
X178283072Y-106999414D01*
X178423212Y-107101232D01*
X178577555Y-107179873D01*
X178742299Y-107233402D01*
X178913389Y-107260500D01*
X178913390Y-107260500D01*
X179086610Y-107260500D01*
X179086611Y-107260500D01*
X179257701Y-107233402D01*
X179422445Y-107179873D01*
X179576788Y-107101232D01*
X179716928Y-106999414D01*
X179839414Y-106876928D01*
X179941232Y-106736788D01*
X180019873Y-106582445D01*
X180073402Y-106417701D01*
X180100500Y-106246611D01*
X180100500Y-106073389D01*
X180073402Y-105902299D01*
X180019873Y-105737555D01*
X179941232Y-105583212D01*
X179839414Y-105443072D01*
X179716928Y-105320586D01*
X179576788Y-105218768D01*
X179422445Y-105140127D01*
X179257701Y-105086598D01*
X179257699Y-105086597D01*
X179257698Y-105086597D01*
X179126271Y-105065781D01*
X179086611Y-105059500D01*
X178913389Y-105059500D01*
X178873728Y-105065781D01*
X178742302Y-105086597D01*
X178577552Y-105140128D01*
X178423211Y-105218768D01*
X178390228Y-105242732D01*
X178283072Y-105320586D01*
X178283070Y-105320588D01*
X178283069Y-105320588D01*
X178160588Y-105443069D01*
X178160588Y-105443070D01*
X178160586Y-105443072D01*
X178116859Y-105503256D01*
X178058768Y-105583211D01*
X177980128Y-105737552D01*
X177926597Y-105902301D01*
X177899103Y-106075898D01*
X177869174Y-106139032D01*
X177809863Y-106175964D01*
X177776630Y-106180500D01*
X171251676Y-106180500D01*
X171184637Y-106160815D01*
X171138882Y-106108011D01*
X171128938Y-106038853D01*
X171157963Y-105975297D01*
X171163995Y-105968819D01*
X171175500Y-105957314D01*
X171241392Y-105843186D01*
X171275500Y-105715892D01*
X171275500Y-105584108D01*
X171241392Y-105456814D01*
X171175500Y-105342686D01*
X171082314Y-105249500D01*
X171082311Y-105249498D01*
X171075865Y-105244552D01*
X171077675Y-105242192D01*
X171039280Y-105201920D01*
X171025500Y-105145107D01*
X171025500Y-103994500D01*
X171045185Y-103927461D01*
X171097989Y-103881706D01*
X171149500Y-103870500D01*
X177834167Y-103870500D01*
X177901206Y-103890185D01*
X177946961Y-103942989D01*
X177952098Y-103956181D01*
X177980128Y-104042449D01*
X178015891Y-104112637D01*
X178058768Y-104196788D01*
X178160586Y-104336928D01*
X178283072Y-104459414D01*
X178423212Y-104561232D01*
X178577555Y-104639873D01*
X178742299Y-104693402D01*
X178913389Y-104720500D01*
X178913390Y-104720500D01*
X179086610Y-104720500D01*
X179086611Y-104720500D01*
X179257701Y-104693402D01*
X179422445Y-104639873D01*
X179576788Y-104561232D01*
X179716928Y-104459414D01*
X179839414Y-104336928D01*
X179941232Y-104196788D01*
X180019873Y-104042445D01*
X180073402Y-103877701D01*
X180100500Y-103706611D01*
X180100500Y-103533389D01*
X180073402Y-103362299D01*
X180019873Y-103197555D01*
X179941232Y-103043212D01*
X179839414Y-102903072D01*
X179716928Y-102780586D01*
X179576788Y-102678768D01*
X179422445Y-102600127D01*
X179257701Y-102546598D01*
X179257699Y-102546597D01*
X179257698Y-102546597D01*
X179126271Y-102525781D01*
X179086611Y-102519500D01*
X178913389Y-102519500D01*
X178873728Y-102525781D01*
X178742302Y-102546597D01*
X178577552Y-102600128D01*
X178423211Y-102678768D01*
X178343256Y-102736859D01*
X178283072Y-102780586D01*
X178283070Y-102780588D01*
X178283069Y-102780588D01*
X178160588Y-102903069D01*
X178160588Y-102903070D01*
X178160586Y-102903072D01*
X178116859Y-102963256D01*
X178058768Y-103043211D01*
X177980128Y-103197550D01*
X177952098Y-103283819D01*
X177912660Y-103341494D01*
X177848301Y-103368692D01*
X177834167Y-103369500D01*
X156165833Y-103369500D01*
X156098794Y-103349815D01*
X156053039Y-103297011D01*
X156047902Y-103283819D01*
X156019871Y-103197550D01*
X155941231Y-103043211D01*
X155839414Y-102903072D01*
X155716928Y-102780586D01*
X155646858Y-102729677D01*
X155576786Y-102678766D01*
X155444700Y-102611466D01*
X155444699Y-102611466D01*
X155422447Y-102600128D01*
X155422446Y-102600127D01*
X155422445Y-102600127D01*
X155257701Y-102546598D01*
X155257699Y-102546597D01*
X155257698Y-102546597D01*
X155126271Y-102525781D01*
X155086611Y-102519500D01*
X154913389Y-102519500D01*
X154873728Y-102525781D01*
X154742302Y-102546597D01*
X154577552Y-102600128D01*
X154423211Y-102678768D01*
X154343256Y-102736859D01*
X154283072Y-102780586D01*
X154283070Y-102780588D01*
X154283069Y-102780588D01*
X154160588Y-102903069D01*
X154160588Y-102903070D01*
X154160586Y-102903072D01*
X154116859Y-102963256D01*
X154058768Y-103043211D01*
X153980128Y-103197552D01*
X153926597Y-103362302D01*
X153925585Y-103368692D01*
X153899500Y-103533389D01*
X151000000Y-103533389D01*
X151000000Y-102509108D01*
X161299500Y-102509108D01*
X161299500Y-102640891D01*
X161333608Y-102768187D01*
X161340767Y-102780586D01*
X161399500Y-102882314D01*
X161492686Y-102975500D01*
X161606814Y-103041392D01*
X161734108Y-103075500D01*
X161734110Y-103075500D01*
X161865890Y-103075500D01*
X161865892Y-103075500D01*
X161993186Y-103041392D01*
X162107314Y-102975500D01*
X162200500Y-102882314D01*
X162266392Y-102768186D01*
X162300500Y-102640892D01*
X162300500Y-102509108D01*
X162266392Y-102381814D01*
X162200500Y-102267686D01*
X162107314Y-102174500D01*
X162050250Y-102141554D01*
X161993187Y-102108608D01*
X161929539Y-102091554D01*
X161865892Y-102074500D01*
X161734108Y-102074500D01*
X161606812Y-102108608D01*
X161492686Y-102174500D01*
X161492683Y-102174502D01*
X161399502Y-102267683D01*
X161399500Y-102267686D01*
X161333608Y-102381812D01*
X161299500Y-102509108D01*
X151000000Y-102509108D01*
X151000000Y-100993389D01*
X153899500Y-100993389D01*
X153899500Y-101166611D01*
X153926598Y-101337701D01*
X153980127Y-101502445D01*
X154058768Y-101656788D01*
X154160586Y-101796928D01*
X154283072Y-101919414D01*
X154423212Y-102021232D01*
X154577555Y-102099873D01*
X154742299Y-102153402D01*
X154913389Y-102180500D01*
X154913390Y-102180500D01*
X155086610Y-102180500D01*
X155086611Y-102180500D01*
X155257701Y-102153402D01*
X155422445Y-102099873D01*
X155576788Y-102021232D01*
X155716928Y-101919414D01*
X155839414Y-101796928D01*
X155941232Y-101656788D01*
X156019873Y-101502445D01*
X156047902Y-101416180D01*
X156087340Y-101358506D01*
X156151699Y-101331308D01*
X156165833Y-101330500D01*
X165045107Y-101330500D01*
X165112146Y-101350185D01*
X165142732Y-101382260D01*
X165144552Y-101380865D01*
X165149498Y-101387311D01*
X165149500Y-101387314D01*
X165242686Y-101480500D01*
X165356814Y-101546392D01*
X165484108Y-101580500D01*
X165484110Y-101580500D01*
X165615890Y-101580500D01*
X165615892Y-101580500D01*
X165743186Y-101546392D01*
X165857314Y-101480500D01*
X165950500Y-101387314D01*
X165950504Y-101387306D01*
X165955448Y-101380865D01*
X165957807Y-101382675D01*
X165998080Y-101344280D01*
X166054893Y-101330500D01*
X177834167Y-101330500D01*
X177901206Y-101350185D01*
X177946961Y-101402989D01*
X177952098Y-101416181D01*
X177980128Y-101502449D01*
X178058768Y-101656788D01*
X178160586Y-101796928D01*
X178283072Y-101919414D01*
X178423212Y-102021232D01*
X178577555Y-102099873D01*
X178742299Y-102153402D01*
X178913389Y-102180500D01*
X178913390Y-102180500D01*
X179086610Y-102180500D01*
X179086611Y-102180500D01*
X179257701Y-102153402D01*
X179422445Y-102099873D01*
X179576788Y-102021232D01*
X179716928Y-101919414D01*
X179839414Y-101796928D01*
X179941232Y-101656788D01*
X180019873Y-101502445D01*
X180073402Y-101337701D01*
X180100500Y-101166611D01*
X180100500Y-100993389D01*
X180073402Y-100822299D01*
X180019873Y-100657555D01*
X179941232Y-100503212D01*
X179839414Y-100363072D01*
X179716928Y-100240586D01*
X179576788Y-100138768D01*
X179422445Y-100060127D01*
X179257701Y-100006598D01*
X179257699Y-100006597D01*
X179257698Y-100006597D01*
X179126271Y-99985781D01*
X179086611Y-99979500D01*
X178913389Y-99979500D01*
X178873728Y-99985781D01*
X178742302Y-100006597D01*
X178577552Y-100060128D01*
X178423211Y-100138768D01*
X178343256Y-100196859D01*
X178283072Y-100240586D01*
X178283070Y-100240588D01*
X178283069Y-100240588D01*
X178160588Y-100363069D01*
X178160588Y-100363070D01*
X178160586Y-100363072D01*
X178116859Y-100423256D01*
X178058768Y-100503211D01*
X177980128Y-100657550D01*
X177952098Y-100743819D01*
X177912660Y-100801494D01*
X177848301Y-100828692D01*
X177834167Y-100829500D01*
X166054893Y-100829500D01*
X165987854Y-100809815D01*
X165957267Y-100777739D01*
X165955448Y-100779135D01*
X165950502Y-100772689D01*
X165950500Y-100772686D01*
X165857314Y-100679500D01*
X165800250Y-100646554D01*
X165743187Y-100613608D01*
X165679539Y-100596554D01*
X165615892Y-100579500D01*
X165484108Y-100579500D01*
X165356812Y-100613608D01*
X165242686Y-100679500D01*
X165242683Y-100679502D01*
X165149502Y-100772683D01*
X165144552Y-100779135D01*
X165142192Y-100777324D01*
X165101920Y-100815720D01*
X165045107Y-100829500D01*
X156165833Y-100829500D01*
X156098794Y-100809815D01*
X156053039Y-100757011D01*
X156047902Y-100743819D01*
X156019871Y-100657550D01*
X155941231Y-100503211D01*
X155839414Y-100363072D01*
X155716928Y-100240586D01*
X155576788Y-100138768D01*
X155422445Y-100060127D01*
X155257701Y-100006598D01*
X155257699Y-100006597D01*
X155257698Y-100006597D01*
X155126271Y-99985781D01*
X155086611Y-99979500D01*
X154913389Y-99979500D01*
X154873728Y-99985781D01*
X154742302Y-100006597D01*
X154577552Y-100060128D01*
X154423211Y-100138768D01*
X154343256Y-100196859D01*
X154283072Y-100240586D01*
X154283070Y-100240588D01*
X154283069Y-100240588D01*
X154160588Y-100363069D01*
X154160588Y-100363070D01*
X154160586Y-100363072D01*
X154116859Y-100423256D01*
X154058768Y-100503211D01*
X153980128Y-100657552D01*
X153926597Y-100822302D01*
X153925585Y-100828692D01*
X153899500Y-100993389D01*
X151000000Y-100993389D01*
X151000000Y-98453389D01*
X153899500Y-98453389D01*
X153899500Y-98626611D01*
X153926598Y-98797701D01*
X153980127Y-98962445D01*
X154058768Y-99116788D01*
X154160586Y-99256928D01*
X154283072Y-99379414D01*
X154423212Y-99481232D01*
X154577555Y-99559873D01*
X154742299Y-99613402D01*
X154913389Y-99640500D01*
X154913390Y-99640500D01*
X155086610Y-99640500D01*
X155086611Y-99640500D01*
X155257701Y-99613402D01*
X155422445Y-99559873D01*
X155576788Y-99481232D01*
X155716928Y-99379414D01*
X155839414Y-99256928D01*
X155941232Y-99116788D01*
X156019873Y-98962445D01*
X156073402Y-98797701D01*
X156100500Y-98626611D01*
X156100500Y-98453389D01*
X177899500Y-98453389D01*
X177899500Y-98626611D01*
X177926598Y-98797701D01*
X177980127Y-98962445D01*
X178058768Y-99116788D01*
X178160586Y-99256928D01*
X178283072Y-99379414D01*
X178423212Y-99481232D01*
X178577555Y-99559873D01*
X178742299Y-99613402D01*
X178913389Y-99640500D01*
X178913390Y-99640500D01*
X179086610Y-99640500D01*
X179086611Y-99640500D01*
X179257701Y-99613402D01*
X179422445Y-99559873D01*
X179576788Y-99481232D01*
X179716928Y-99379414D01*
X179839414Y-99256928D01*
X179941232Y-99116788D01*
X180019873Y-98962445D01*
X180073402Y-98797701D01*
X180100500Y-98626611D01*
X180100500Y-98453389D01*
X180073402Y-98282299D01*
X180019873Y-98117555D01*
X179941232Y-97963212D01*
X179839414Y-97823072D01*
X179716928Y-97700586D01*
X179576788Y-97598768D01*
X179422445Y-97520127D01*
X179257701Y-97466598D01*
X179257699Y-97466597D01*
X179257698Y-97466597D01*
X179126271Y-97445781D01*
X179086611Y-97439500D01*
X178913389Y-97439500D01*
X178873728Y-97445781D01*
X178742302Y-97466597D01*
X178577552Y-97520128D01*
X178423211Y-97598768D01*
X178343256Y-97656859D01*
X178283072Y-97700586D01*
X178283070Y-97700588D01*
X178283069Y-97700588D01*
X178160588Y-97823069D01*
X178160588Y-97823070D01*
X178160586Y-97823072D01*
X178116859Y-97883256D01*
X178058768Y-97963211D01*
X177980128Y-98117552D01*
X177926597Y-98282302D01*
X177899500Y-98453389D01*
X156100500Y-98453389D01*
X156073402Y-98282299D01*
X156019873Y-98117555D01*
X155941232Y-97963212D01*
X155839414Y-97823072D01*
X155716928Y-97700586D01*
X155576788Y-97598768D01*
X155422445Y-97520127D01*
X155257701Y-97466598D01*
X155257699Y-97466597D01*
X155257698Y-97466597D01*
X155126271Y-97445781D01*
X155086611Y-97439500D01*
X154913389Y-97439500D01*
X154873728Y-97445781D01*
X154742302Y-97466597D01*
X154577552Y-97520128D01*
X154423211Y-97598768D01*
X154343256Y-97656859D01*
X154283072Y-97700586D01*
X154283070Y-97700588D01*
X154283069Y-97700588D01*
X154160588Y-97823069D01*
X154160588Y-97823070D01*
X154160586Y-97823072D01*
X154116859Y-97883256D01*
X154058768Y-97963211D01*
X153980128Y-98117552D01*
X153926597Y-98282302D01*
X153899500Y-98453389D01*
X151000000Y-98453389D01*
X151000000Y-95913389D01*
X153899500Y-95913389D01*
X153899500Y-96086611D01*
X153926598Y-96257701D01*
X153980127Y-96422445D01*
X154058768Y-96576788D01*
X154160586Y-96716928D01*
X154283072Y-96839414D01*
X154423212Y-96941232D01*
X154577555Y-97019873D01*
X154742299Y-97073402D01*
X154913389Y-97100500D01*
X154913390Y-97100500D01*
X155086610Y-97100500D01*
X155086611Y-97100500D01*
X155257701Y-97073402D01*
X155422445Y-97019873D01*
X155576788Y-96941232D01*
X155716928Y-96839414D01*
X155839414Y-96716928D01*
X155941232Y-96576788D01*
X156019873Y-96422445D01*
X156073402Y-96257701D01*
X156100500Y-96086611D01*
X156100500Y-95913389D01*
X177899500Y-95913389D01*
X177899500Y-96086611D01*
X177926598Y-96257701D01*
X177980127Y-96422445D01*
X178058768Y-96576788D01*
X178160586Y-96716928D01*
X178283072Y-96839414D01*
X178423212Y-96941232D01*
X178577555Y-97019873D01*
X178742299Y-97073402D01*
X178913389Y-97100500D01*
X178913390Y-97100500D01*
X179086610Y-97100500D01*
X179086611Y-97100500D01*
X179257701Y-97073402D01*
X179422445Y-97019873D01*
X179576788Y-96941232D01*
X179716928Y-96839414D01*
X179839414Y-96716928D01*
X179941232Y-96576788D01*
X180019873Y-96422445D01*
X180073402Y-96257701D01*
X180100500Y-96086611D01*
X180100500Y-95913389D01*
X180073402Y-95742299D01*
X180019873Y-95577555D01*
X179941232Y-95423212D01*
X179839414Y-95283072D01*
X179716928Y-95160586D01*
X179576788Y-95058768D01*
X179422445Y-94980127D01*
X179257701Y-94926598D01*
X179257699Y-94926597D01*
X179257698Y-94926597D01*
X179126271Y-94905781D01*
X179086611Y-94899500D01*
X178913389Y-94899500D01*
X178873728Y-94905781D01*
X178742302Y-94926597D01*
X178577552Y-94980128D01*
X178423211Y-95058768D01*
X178343256Y-95116859D01*
X178283072Y-95160586D01*
X178283070Y-95160588D01*
X178283069Y-95160588D01*
X178160588Y-95283069D01*
X178160588Y-95283070D01*
X178160586Y-95283072D01*
X178116859Y-95343256D01*
X178058768Y-95423211D01*
X177980128Y-95577552D01*
X177926597Y-95742302D01*
X177899500Y-95913389D01*
X156100500Y-95913389D01*
X156073402Y-95742299D01*
X156019873Y-95577555D01*
X155941232Y-95423212D01*
X155839414Y-95283072D01*
X155716928Y-95160586D01*
X155576788Y-95058768D01*
X155422445Y-94980127D01*
X155257701Y-94926598D01*
X155257699Y-94926597D01*
X155257698Y-94926597D01*
X155126271Y-94905781D01*
X155086611Y-94899500D01*
X154913389Y-94899500D01*
X154873728Y-94905781D01*
X154742302Y-94926597D01*
X154577552Y-94980128D01*
X154423211Y-95058768D01*
X154343256Y-95116859D01*
X154283072Y-95160586D01*
X154283070Y-95160588D01*
X154283069Y-95160588D01*
X154160588Y-95283069D01*
X154160588Y-95283070D01*
X154160586Y-95283072D01*
X154116859Y-95343256D01*
X154058768Y-95423211D01*
X153980128Y-95577552D01*
X153926597Y-95742302D01*
X153899500Y-95913389D01*
X151000000Y-95913389D01*
X151000000Y-91409108D01*
X156499500Y-91409108D01*
X156499500Y-91540891D01*
X156533608Y-91668187D01*
X156566554Y-91725250D01*
X156599500Y-91782314D01*
X156692686Y-91875500D01*
X156806814Y-91941392D01*
X156934108Y-91975500D01*
X156934110Y-91975500D01*
X157065890Y-91975500D01*
X157065892Y-91975500D01*
X157193186Y-91941392D01*
X157307314Y-91875500D01*
X157400500Y-91782314D01*
X157466392Y-91668186D01*
X157500500Y-91540892D01*
X157500500Y-91409108D01*
X157466392Y-91281814D01*
X157400500Y-91167686D01*
X157307314Y-91074500D01*
X157250250Y-91041554D01*
X157193187Y-91008608D01*
X157129539Y-90991554D01*
X157065892Y-90974500D01*
X156934108Y-90974500D01*
X156806812Y-91008608D01*
X156692686Y-91074500D01*
X156692683Y-91074502D01*
X156599502Y-91167683D01*
X156599500Y-91167686D01*
X156533608Y-91281812D01*
X156499500Y-91409108D01*
X151000000Y-91409108D01*
X151000000Y-89391228D01*
X151549500Y-89391228D01*
X151549500Y-89558771D01*
X151582182Y-89723074D01*
X151582184Y-89723082D01*
X151646295Y-89877860D01*
X151739373Y-90017162D01*
X151857837Y-90135626D01*
X151880098Y-90150500D01*
X151997137Y-90228703D01*
X152151918Y-90292816D01*
X152316228Y-90325499D01*
X152316232Y-90325500D01*
X152316233Y-90325500D01*
X152483768Y-90325500D01*
X152483769Y-90325499D01*
X152648082Y-90292816D01*
X152802863Y-90228703D01*
X152942162Y-90135626D01*
X153060626Y-90017162D01*
X153153703Y-89877863D01*
X153217816Y-89723082D01*
X153250500Y-89558767D01*
X153250500Y-89391233D01*
X153217816Y-89226918D01*
X153213388Y-89216228D01*
X166749500Y-89216228D01*
X166749500Y-89383771D01*
X166782182Y-89548074D01*
X166782184Y-89548082D01*
X166846295Y-89702860D01*
X166939373Y-89842162D01*
X167057837Y-89960626D01*
X167142450Y-90017162D01*
X167197137Y-90053703D01*
X167351918Y-90117816D01*
X167516228Y-90150499D01*
X167516232Y-90150500D01*
X167516233Y-90150500D01*
X167683768Y-90150500D01*
X167683769Y-90150499D01*
X167848082Y-90117816D01*
X168002863Y-90053703D01*
X168142162Y-89960626D01*
X168260626Y-89842162D01*
X168353703Y-89702863D01*
X168417816Y-89548082D01*
X168450500Y-89383767D01*
X168450500Y-89216233D01*
X168417816Y-89051918D01*
X168353703Y-88897137D01*
X168322537Y-88850494D01*
X168260626Y-88757837D01*
X168142162Y-88639373D01*
X168002860Y-88546295D01*
X167848082Y-88482184D01*
X167848074Y-88482182D01*
X167683771Y-88449500D01*
X167683767Y-88449500D01*
X167516233Y-88449500D01*
X167516228Y-88449500D01*
X167351925Y-88482182D01*
X167351917Y-88482184D01*
X167197139Y-88546295D01*
X167057837Y-88639373D01*
X166939373Y-88757837D01*
X166846295Y-88897139D01*
X166782184Y-89051917D01*
X166782182Y-89051925D01*
X166749500Y-89216228D01*
X153213388Y-89216228D01*
X153153703Y-89072137D01*
X153122537Y-89025494D01*
X153060626Y-88932837D01*
X152942162Y-88814373D01*
X152802860Y-88721295D01*
X152648082Y-88657184D01*
X152648074Y-88657182D01*
X152483771Y-88624500D01*
X152483767Y-88624500D01*
X152316233Y-88624500D01*
X152316228Y-88624500D01*
X152151925Y-88657182D01*
X152151917Y-88657184D01*
X151997139Y-88721295D01*
X151857837Y-88814373D01*
X151739373Y-88932837D01*
X151646295Y-89072139D01*
X151582184Y-89226917D01*
X151582182Y-89226925D01*
X151549500Y-89391228D01*
X151000000Y-89391228D01*
X151000000Y-86702135D01*
X152899500Y-86702135D01*
X152899500Y-88247870D01*
X152899501Y-88247876D01*
X152905908Y-88307483D01*
X152956202Y-88442328D01*
X152956206Y-88442335D01*
X153042452Y-88557544D01*
X153042455Y-88557547D01*
X153157664Y-88643793D01*
X153157671Y-88643797D01*
X153292517Y-88694091D01*
X153292516Y-88694091D01*
X153299232Y-88694813D01*
X153352127Y-88700500D01*
X154647872Y-88700499D01*
X154707483Y-88694091D01*
X154842331Y-88643796D01*
X154957546Y-88557546D01*
X155043796Y-88442331D01*
X155094091Y-88307483D01*
X155094091Y-88307481D01*
X155095874Y-88299938D01*
X155099117Y-88300704D01*
X155120035Y-88250172D01*
X155177419Y-88210311D01*
X155247243Y-88207802D01*
X155307340Y-88243441D01*
X155327089Y-88271662D01*
X155345379Y-88307557D01*
X155470272Y-88479459D01*
X155470276Y-88479464D01*
X155620535Y-88629723D01*
X155620540Y-88629727D01*
X155792442Y-88754620D01*
X155981782Y-88851095D01*
X156183871Y-88916757D01*
X156250000Y-88927231D01*
X156250000Y-87879145D01*
X156316657Y-87917630D01*
X156437465Y-87950000D01*
X156562535Y-87950000D01*
X156683343Y-87917630D01*
X156750000Y-87879145D01*
X156750000Y-88927230D01*
X156816126Y-88916757D01*
X156816129Y-88916757D01*
X157018217Y-88851095D01*
X157207557Y-88754620D01*
X157379458Y-88629728D01*
X157436339Y-88572847D01*
X157497662Y-88539362D01*
X157567354Y-88544346D01*
X157623287Y-88586217D01*
X157631408Y-88598527D01*
X157649422Y-88629727D01*
X157687000Y-88694814D01*
X157780186Y-88788000D01*
X157894314Y-88853892D01*
X158021608Y-88888000D01*
X158021610Y-88888000D01*
X158153390Y-88888000D01*
X158153392Y-88888000D01*
X158280686Y-88853892D01*
X158394814Y-88788000D01*
X158488000Y-88694814D01*
X158488368Y-88694175D01*
X158488820Y-88693744D01*
X158492950Y-88688363D01*
X158493788Y-88689006D01*
X158538930Y-88645958D01*
X158607537Y-88632730D01*
X158634074Y-88638237D01*
X158742299Y-88673402D01*
X158913389Y-88700500D01*
X158913390Y-88700500D01*
X159086610Y-88700500D01*
X159086611Y-88700500D01*
X159257701Y-88673402D01*
X159422445Y-88619873D01*
X159576788Y-88541232D01*
X159716928Y-88439414D01*
X159839414Y-88316928D01*
X159941232Y-88176788D01*
X160019873Y-88022445D01*
X160073402Y-87857701D01*
X160100500Y-87686611D01*
X160100500Y-87263389D01*
X160073402Y-87092299D01*
X160019873Y-86927555D01*
X159941232Y-86773212D01*
X159839414Y-86633072D01*
X159733477Y-86527135D01*
X168099500Y-86527135D01*
X168099500Y-88072870D01*
X168099501Y-88072876D01*
X168105908Y-88132483D01*
X168156202Y-88267328D01*
X168156206Y-88267335D01*
X168242452Y-88382544D01*
X168242455Y-88382547D01*
X168357664Y-88468793D01*
X168357671Y-88468797D01*
X168492517Y-88519091D01*
X168492516Y-88519091D01*
X168499444Y-88519835D01*
X168552127Y-88525500D01*
X169847872Y-88525499D01*
X169907483Y-88519091D01*
X170042331Y-88468796D01*
X170157546Y-88382546D01*
X170243796Y-88267331D01*
X170294091Y-88132483D01*
X170300500Y-88072873D01*
X170300499Y-87088389D01*
X170599500Y-87088389D01*
X170599500Y-87511611D01*
X170626598Y-87682701D01*
X170680127Y-87847445D01*
X170758768Y-88001788D01*
X170860586Y-88141928D01*
X170983072Y-88264414D01*
X171123212Y-88366232D01*
X171277555Y-88444873D01*
X171442299Y-88498402D01*
X171613389Y-88525500D01*
X171613390Y-88525500D01*
X171786610Y-88525500D01*
X171786611Y-88525500D01*
X171957701Y-88498402D01*
X172122445Y-88444873D01*
X172276788Y-88366232D01*
X172416928Y-88264414D01*
X172539414Y-88141928D01*
X172641232Y-88001788D01*
X172719873Y-87847445D01*
X172773402Y-87682701D01*
X172800500Y-87511611D01*
X172800500Y-87088389D01*
X173099500Y-87088389D01*
X173099500Y-87511611D01*
X173126598Y-87682701D01*
X173180127Y-87847445D01*
X173258768Y-88001788D01*
X173360586Y-88141928D01*
X173483072Y-88264414D01*
X173623212Y-88366232D01*
X173777555Y-88444873D01*
X173942299Y-88498402D01*
X174113389Y-88525500D01*
X174113390Y-88525500D01*
X174286610Y-88525500D01*
X174286611Y-88525500D01*
X174457701Y-88498402D01*
X174622445Y-88444873D01*
X174776788Y-88366232D01*
X174916928Y-88264414D01*
X175039414Y-88141928D01*
X175141232Y-88001788D01*
X175219873Y-87847445D01*
X175273402Y-87682701D01*
X175300500Y-87511611D01*
X175300500Y-87088389D01*
X175599500Y-87088389D01*
X175599500Y-87511611D01*
X175626598Y-87682701D01*
X175680127Y-87847445D01*
X175758768Y-88001788D01*
X175860586Y-88141928D01*
X175983072Y-88264414D01*
X176123212Y-88366232D01*
X176277555Y-88444873D01*
X176442299Y-88498402D01*
X176613389Y-88525500D01*
X176613390Y-88525500D01*
X176786610Y-88525500D01*
X176786611Y-88525500D01*
X176957701Y-88498402D01*
X177122445Y-88444873D01*
X177276788Y-88366232D01*
X177416928Y-88264414D01*
X177539414Y-88141928D01*
X177641232Y-88001788D01*
X177719873Y-87847445D01*
X177773402Y-87682701D01*
X177800500Y-87511611D01*
X177800500Y-87088389D01*
X178099500Y-87088389D01*
X178099500Y-87511611D01*
X178126598Y-87682701D01*
X178180127Y-87847445D01*
X178258768Y-88001788D01*
X178360586Y-88141928D01*
X178483072Y-88264414D01*
X178623212Y-88366232D01*
X178777555Y-88444873D01*
X178942299Y-88498402D01*
X179113389Y-88525500D01*
X179113390Y-88525500D01*
X179286610Y-88525500D01*
X179286611Y-88525500D01*
X179457701Y-88498402D01*
X179622445Y-88444873D01*
X179776788Y-88366232D01*
X179916928Y-88264414D01*
X180039414Y-88141928D01*
X180141232Y-88001788D01*
X180219873Y-87847445D01*
X180273402Y-87682701D01*
X180300500Y-87511611D01*
X180300500Y-87088389D01*
X180273402Y-86917299D01*
X180219873Y-86752555D01*
X180141232Y-86598212D01*
X180039414Y-86458072D01*
X179916928Y-86335586D01*
X179776788Y-86233768D01*
X179622445Y-86155127D01*
X179457701Y-86101598D01*
X179457699Y-86101597D01*
X179457698Y-86101597D01*
X179326271Y-86080781D01*
X179286611Y-86074500D01*
X179113389Y-86074500D01*
X179073728Y-86080781D01*
X178942302Y-86101597D01*
X178777552Y-86155128D01*
X178623211Y-86233768D01*
X178543256Y-86291859D01*
X178483072Y-86335586D01*
X178483070Y-86335588D01*
X178483069Y-86335588D01*
X178360588Y-86458069D01*
X178360588Y-86458070D01*
X178360586Y-86458072D01*
X178324555Y-86507664D01*
X178258768Y-86598211D01*
X178180128Y-86752552D01*
X178126597Y-86917302D01*
X178099500Y-87088389D01*
X177800500Y-87088389D01*
X177773402Y-86917299D01*
X177719873Y-86752555D01*
X177641232Y-86598212D01*
X177539414Y-86458072D01*
X177416928Y-86335586D01*
X177276788Y-86233768D01*
X177122445Y-86155127D01*
X176957701Y-86101598D01*
X176957699Y-86101597D01*
X176957698Y-86101597D01*
X176826271Y-86080781D01*
X176786611Y-86074500D01*
X176613389Y-86074500D01*
X176573728Y-86080781D01*
X176442302Y-86101597D01*
X176277552Y-86155128D01*
X176123211Y-86233768D01*
X176043256Y-86291859D01*
X175983072Y-86335586D01*
X175983070Y-86335588D01*
X175983069Y-86335588D01*
X175860588Y-86458069D01*
X175860588Y-86458070D01*
X175860586Y-86458072D01*
X175824555Y-86507664D01*
X175758768Y-86598211D01*
X175680128Y-86752552D01*
X175626597Y-86917302D01*
X175599500Y-87088389D01*
X175300500Y-87088389D01*
X175273402Y-86917299D01*
X175219873Y-86752555D01*
X175141232Y-86598212D01*
X175039414Y-86458072D01*
X174916928Y-86335586D01*
X174776788Y-86233768D01*
X174622445Y-86155127D01*
X174457701Y-86101598D01*
X174457699Y-86101597D01*
X174457698Y-86101597D01*
X174326271Y-86080781D01*
X174286611Y-86074500D01*
X174113389Y-86074500D01*
X174073728Y-86080781D01*
X173942302Y-86101597D01*
X173777552Y-86155128D01*
X173623211Y-86233768D01*
X173543256Y-86291859D01*
X173483072Y-86335586D01*
X173483070Y-86335588D01*
X173483069Y-86335588D01*
X173360588Y-86458069D01*
X173360588Y-86458070D01*
X173360586Y-86458072D01*
X173324555Y-86507664D01*
X173258768Y-86598211D01*
X173180128Y-86752552D01*
X173126597Y-86917302D01*
X173099500Y-87088389D01*
X172800500Y-87088389D01*
X172773402Y-86917299D01*
X172719873Y-86752555D01*
X172641232Y-86598212D01*
X172539414Y-86458072D01*
X172416928Y-86335586D01*
X172276788Y-86233768D01*
X172122445Y-86155127D01*
X171957701Y-86101598D01*
X171957699Y-86101597D01*
X171957698Y-86101597D01*
X171826271Y-86080781D01*
X171786611Y-86074500D01*
X171613389Y-86074500D01*
X171573728Y-86080781D01*
X171442302Y-86101597D01*
X171277552Y-86155128D01*
X171123211Y-86233768D01*
X171043256Y-86291859D01*
X170983072Y-86335586D01*
X170983070Y-86335588D01*
X170983069Y-86335588D01*
X170860588Y-86458069D01*
X170860588Y-86458070D01*
X170860586Y-86458072D01*
X170824555Y-86507664D01*
X170758768Y-86598211D01*
X170680128Y-86752552D01*
X170626597Y-86917302D01*
X170599500Y-87088389D01*
X170300499Y-87088389D01*
X170300499Y-86527128D01*
X170294416Y-86470540D01*
X170294091Y-86467516D01*
X170243797Y-86332671D01*
X170243793Y-86332664D01*
X170157547Y-86217455D01*
X170157544Y-86217452D01*
X170042335Y-86131206D01*
X170042328Y-86131202D01*
X169907482Y-86080908D01*
X169907483Y-86080908D01*
X169847883Y-86074501D01*
X169847881Y-86074500D01*
X169847873Y-86074500D01*
X169847864Y-86074500D01*
X168552129Y-86074500D01*
X168552123Y-86074501D01*
X168492516Y-86080908D01*
X168357671Y-86131202D01*
X168357664Y-86131206D01*
X168242455Y-86217452D01*
X168242452Y-86217455D01*
X168156206Y-86332664D01*
X168156202Y-86332671D01*
X168105908Y-86467517D01*
X168101278Y-86510586D01*
X168099501Y-86527123D01*
X168099500Y-86527135D01*
X159733477Y-86527135D01*
X159716928Y-86510586D01*
X159576788Y-86408768D01*
X159422445Y-86330127D01*
X159257701Y-86276598D01*
X159257699Y-86276597D01*
X159257698Y-86276597D01*
X159126271Y-86255781D01*
X159086611Y-86249500D01*
X158913389Y-86249500D01*
X158873728Y-86255781D01*
X158742302Y-86276597D01*
X158577552Y-86330128D01*
X158423211Y-86408768D01*
X158355355Y-86458069D01*
X158283072Y-86510586D01*
X158283070Y-86510588D01*
X158283069Y-86510588D01*
X158160588Y-86633069D01*
X158160588Y-86633070D01*
X158160586Y-86633072D01*
X158116859Y-86693256D01*
X158058768Y-86773211D01*
X157995185Y-86898000D01*
X157947210Y-86948796D01*
X157879389Y-86965591D01*
X157813254Y-86943053D01*
X157769803Y-86888338D01*
X157766768Y-86880022D01*
X157751093Y-86831778D01*
X157654620Y-86642442D01*
X157529727Y-86470540D01*
X157529723Y-86470535D01*
X157379464Y-86320276D01*
X157379459Y-86320272D01*
X157207557Y-86195379D01*
X157018215Y-86098903D01*
X156816124Y-86033241D01*
X156750000Y-86022768D01*
X156750000Y-87070854D01*
X156683343Y-87032370D01*
X156562535Y-87000000D01*
X156437465Y-87000000D01*
X156316657Y-87032370D01*
X156250000Y-87070854D01*
X156250000Y-86022768D01*
X156249999Y-86022768D01*
X156183875Y-86033241D01*
X155981784Y-86098903D01*
X155792442Y-86195379D01*
X155620540Y-86320272D01*
X155620535Y-86320276D01*
X155470276Y-86470535D01*
X155470272Y-86470540D01*
X155345377Y-86642444D01*
X155327087Y-86678339D01*
X155279112Y-86729133D01*
X155211290Y-86745927D01*
X155145156Y-86723388D01*
X155101706Y-86668672D01*
X155096976Y-86649807D01*
X155095876Y-86650068D01*
X155094092Y-86642520D01*
X155090567Y-86633070D01*
X155077566Y-86598211D01*
X155043797Y-86507671D01*
X155043793Y-86507664D01*
X154957547Y-86392455D01*
X154957544Y-86392452D01*
X154842335Y-86306206D01*
X154842328Y-86306202D01*
X154707482Y-86255908D01*
X154707483Y-86255908D01*
X154647883Y-86249501D01*
X154647881Y-86249500D01*
X154647873Y-86249500D01*
X154647864Y-86249500D01*
X153352129Y-86249500D01*
X153352123Y-86249501D01*
X153292516Y-86255908D01*
X153157671Y-86306202D01*
X153157664Y-86306206D01*
X153042455Y-86392452D01*
X153042452Y-86392455D01*
X152956206Y-86507664D01*
X152956202Y-86507671D01*
X152905908Y-86642517D01*
X152899501Y-86702116D01*
X152899500Y-86702135D01*
X151000000Y-86702135D01*
X151000000Y-84124000D01*
X151019685Y-84056961D01*
X151072489Y-84011206D01*
X151124000Y-84000000D01*
X187876000Y-84000000D01*
X187943039Y-84019685D01*
G37*
%TD.AperFunction*%
%TD*%
M02*
