%TF.GenerationSoftware,KiCad,Pcbnew,9.0.7*%
%TF.CreationDate,2026-04-14T02:02:05+02:00*%
%TF.ProjectId,split_flap_unit,73706c69-745f-4666-9c61-705f756e6974,rev?*%
%TF.SameCoordinates,Original*%
%TF.FileFunction,Soldermask,Top*%
%TF.FilePolarity,Negative*%
%FSLAX46Y46*%
G04 Gerber Fmt 4.6, Leading zero omitted, Abs format (unit mm)*
G04 Created by KiCad (PCBNEW 9.0.7) date 2026-04-14 02:02:05*
%MOMM*%
%LPD*%
G01*
G04 APERTURE LIST*
G04 Aperture macros list*
%AMRoundRect*
0 Rectangle with rounded corners*
0 $1 Rounding radius*
0 $2 $3 $4 $5 $6 $7 $8 $9 X,Y pos of 4 corners*
0 Add a 4 corners polygon primitive as box body*
4,1,4,$2,$3,$4,$5,$6,$7,$8,$9,$2,$3,0*
0 Add four circle primitives for the rounded corners*
1,1,$1+$1,$2,$3*
1,1,$1+$1,$4,$5*
1,1,$1+$1,$6,$7*
1,1,$1+$1,$8,$9*
0 Add four rect primitives between the rounded corners*
20,1,$1+$1,$2,$3,$4,$5,0*
20,1,$1+$1,$4,$5,$6,$7,0*
20,1,$1+$1,$6,$7,$8,$9,0*
20,1,$1+$1,$8,$9,$2,$3,0*%
G04 Aperture macros list end*
%ADD10RoundRect,0.250000X-0.337500X-0.475000X0.337500X-0.475000X0.337500X0.475000X-0.337500X0.475000X0*%
%ADD11RoundRect,0.250000X-0.600000X-0.725000X0.600000X-0.725000X0.600000X0.725000X-0.600000X0.725000X0*%
%ADD12O,1.700000X1.950000*%
%ADD13C,2.000000*%
%ADD14RoundRect,0.250000X-0.475000X0.337500X-0.475000X-0.337500X0.475000X-0.337500X0.475000X0.337500X0*%
%ADD15R,1.700000X1.700000*%
%ADD16C,1.700000*%
%ADD17RoundRect,0.250000X0.450000X-0.350000X0.450000X0.350000X-0.450000X0.350000X-0.450000X-0.350000X0*%
%ADD18RoundRect,0.250000X-0.650000X0.412500X-0.650000X-0.412500X0.650000X-0.412500X0.650000X0.412500X0*%
%ADD19RoundRect,0.250000X0.350000X0.450000X-0.350000X0.450000X-0.350000X-0.450000X0.350000X-0.450000X0*%
%ADD20RoundRect,0.150000X0.150000X-0.825000X0.150000X0.825000X-0.150000X0.825000X-0.150000X-0.825000X0*%
%ADD21RoundRect,0.150000X0.825000X0.150000X-0.825000X0.150000X-0.825000X-0.150000X0.825000X-0.150000X0*%
%ADD22RoundRect,0.150000X-0.150000X0.825000X-0.150000X-0.825000X0.150000X-0.825000X0.150000X0.825000X0*%
G04 APERTURE END LIST*
D10*
%TO.C,C4*%
X177812500Y-92650000D03*
X179887500Y-92650000D03*
%TD*%
D11*
%TO.C,J3*%
X169200000Y-87300000D03*
D12*
X171700000Y-87300000D03*
X174200000Y-87300000D03*
X176700000Y-87300000D03*
X179200000Y-87300000D03*
%TD*%
D13*
%TO.C,GND1*%
X162825000Y-115375000D03*
%TD*%
D14*
%TO.C,C2*%
X175900000Y-109275000D03*
X175900000Y-111350000D03*
%TD*%
D15*
%TO.C,J4*%
X179000000Y-113780000D03*
D16*
X179000000Y-111240000D03*
X179000000Y-108700000D03*
X179000000Y-106160000D03*
X179000000Y-103620000D03*
X179000000Y-101080000D03*
X179000000Y-98540000D03*
X179000000Y-96000000D03*
%TD*%
D17*
%TO.C,R2*%
X186150000Y-93375000D03*
X186150000Y-91375000D03*
%TD*%
D14*
%TO.C,C3*%
X160150000Y-102687500D03*
X160150000Y-104762500D03*
%TD*%
D15*
%TO.C,J1*%
X155000000Y-113780000D03*
D16*
X155000000Y-111240000D03*
X155000000Y-108700000D03*
X155000000Y-106160000D03*
X155000000Y-103620000D03*
X155000000Y-101080000D03*
X155000000Y-98540000D03*
X155000000Y-96000000D03*
%TD*%
D11*
%TO.C,J2*%
X154000000Y-87475000D03*
D12*
X156500000Y-87475000D03*
X159000000Y-87475000D03*
%TD*%
D18*
%TO.C,C1*%
X158385000Y-111547500D03*
X158385000Y-114672500D03*
%TD*%
D19*
%TO.C,R1*%
X157000000Y-92500000D03*
X155000000Y-92500000D03*
%TD*%
D20*
%TO.C,IC1*%
X167440000Y-98513000D03*
X168710000Y-98513000D03*
X169980000Y-98513000D03*
X171250000Y-98513000D03*
X172520000Y-98513000D03*
X173790000Y-98513000D03*
X175060000Y-98513000D03*
X176330000Y-98513000D03*
X176330000Y-93563000D03*
X175060000Y-93563000D03*
X173790000Y-93563000D03*
X172520000Y-93563000D03*
X171250000Y-93563000D03*
X169980000Y-93563000D03*
X168710000Y-93563000D03*
X167440000Y-93563000D03*
%TD*%
D21*
%TO.C,U1*%
X164275000Y-101057500D03*
X164275000Y-99787500D03*
X164275000Y-98517500D03*
X164275000Y-97247500D03*
X164275000Y-95977500D03*
X164275000Y-94707500D03*
X164275000Y-93437500D03*
X164275000Y-92167500D03*
X159325000Y-92167500D03*
X159325000Y-93437500D03*
X159325000Y-94707500D03*
X159325000Y-95977500D03*
X159325000Y-97247500D03*
X159325000Y-98517500D03*
X159325000Y-99787500D03*
X159325000Y-101057500D03*
%TD*%
D22*
%TO.C,U2*%
X175857500Y-102225000D03*
X174587500Y-102225000D03*
X173317500Y-102225000D03*
X172047500Y-102225000D03*
X170777500Y-102225000D03*
X169507500Y-102225000D03*
X168237500Y-102225000D03*
X166967500Y-102225000D03*
X166967500Y-107175000D03*
X168237500Y-107175000D03*
X169507500Y-107175000D03*
X170777500Y-107175000D03*
X172047500Y-107175000D03*
X173317500Y-107175000D03*
X174587500Y-107175000D03*
X175857500Y-107175000D03*
%TD*%
M02*
