%TF.GenerationSoftware,KiCad,Pcbnew,9.0.7*%
%TF.CreationDate,2026-04-14T02:02:05+02:00*%
%TF.ProjectId,split_flap_unit,73706c69-745f-4666-9c61-705f756e6974,rev?*%
%TF.SameCoordinates,Original*%
%TF.FileFunction,Legend,Bot*%
%TF.FilePolarity,Positive*%
%FSLAX46Y46*%
G04 Gerber Fmt 4.6, Leading zero omitted, Abs format (unit mm)*
G04 Created by KiCad (PCBNEW 9.0.7) date 2026-04-14 02:02:05*
%MOMM*%
%LPD*%
G01*
G04 APERTURE LIST*
G04 Aperture macros list*
%AMRoundRect*
0 Rectangle with rounded corners*
0 $1 Rounding radius*
0 $2 $3 $4 $5 $6 $7 $8 $9 X,Y pos of 4 corners*
0 Add a 4 corners polygon primitive as box body*
4,1,4,$2,$3,$4,$5,$6,$7,$8,$9,$2,$3,0*
0 Add four circle primitives for the rounded corners*
1,1,$1+$1,$2,$3*
1,1,$1+$1,$4,$5*
1,1,$1+$1,$6,$7*
1,1,$1+$1,$8,$9*
0 Add four rect primitives between the rounded corners*
20,1,$1+$1,$2,$3,$4,$5,0*
20,1,$1+$1,$4,$5,$6,$7,0*
20,1,$1+$1,$6,$7,$8,$9,0*
20,1,$1+$1,$8,$9,$2,$3,0*%
G04 Aperture macros list end*
%ADD10C,0.300000*%
%ADD11C,1.200000*%
%ADD12RoundRect,0.250000X-0.600000X-0.725000X0.600000X-0.725000X0.600000X0.725000X-0.600000X0.725000X0*%
%ADD13O,1.700000X1.950000*%
%ADD14R,1.700000X1.700000*%
%ADD15C,1.700000*%
G04 APERTURE END LIST*
D10*
X176195489Y-92727698D02*
X175695489Y-92727698D01*
X175481203Y-93513412D02*
X176195489Y-93513412D01*
X176195489Y-93513412D02*
X176195489Y-92013412D01*
X176195489Y-92013412D02*
X175481203Y-92013412D01*
X174909774Y-93441984D02*
X174695489Y-93513412D01*
X174695489Y-93513412D02*
X174338346Y-93513412D01*
X174338346Y-93513412D02*
X174195489Y-93441984D01*
X174195489Y-93441984D02*
X174124060Y-93370555D01*
X174124060Y-93370555D02*
X174052631Y-93227698D01*
X174052631Y-93227698D02*
X174052631Y-93084841D01*
X174052631Y-93084841D02*
X174124060Y-92941984D01*
X174124060Y-92941984D02*
X174195489Y-92870555D01*
X174195489Y-92870555D02*
X174338346Y-92799126D01*
X174338346Y-92799126D02*
X174624060Y-92727698D01*
X174624060Y-92727698D02*
X174766917Y-92656269D01*
X174766917Y-92656269D02*
X174838346Y-92584841D01*
X174838346Y-92584841D02*
X174909774Y-92441984D01*
X174909774Y-92441984D02*
X174909774Y-92299126D01*
X174909774Y-92299126D02*
X174838346Y-92156269D01*
X174838346Y-92156269D02*
X174766917Y-92084841D01*
X174766917Y-92084841D02*
X174624060Y-92013412D01*
X174624060Y-92013412D02*
X174266917Y-92013412D01*
X174266917Y-92013412D02*
X174052631Y-92084841D01*
X173409775Y-93513412D02*
X173409775Y-92013412D01*
X173409775Y-92013412D02*
X172838346Y-92013412D01*
X172838346Y-92013412D02*
X172695489Y-92084841D01*
X172695489Y-92084841D02*
X172624060Y-92156269D01*
X172624060Y-92156269D02*
X172552632Y-92299126D01*
X172552632Y-92299126D02*
X172552632Y-92513412D01*
X172552632Y-92513412D02*
X172624060Y-92656269D01*
X172624060Y-92656269D02*
X172695489Y-92727698D01*
X172695489Y-92727698D02*
X172838346Y-92799126D01*
X172838346Y-92799126D02*
X173409775Y-92799126D01*
X172052632Y-92013412D02*
X171124060Y-92013412D01*
X171124060Y-92013412D02*
X171624060Y-92584841D01*
X171624060Y-92584841D02*
X171409775Y-92584841D01*
X171409775Y-92584841D02*
X171266918Y-92656269D01*
X171266918Y-92656269D02*
X171195489Y-92727698D01*
X171195489Y-92727698D02*
X171124060Y-92870555D01*
X171124060Y-92870555D02*
X171124060Y-93227698D01*
X171124060Y-93227698D02*
X171195489Y-93370555D01*
X171195489Y-93370555D02*
X171266918Y-93441984D01*
X171266918Y-93441984D02*
X171409775Y-93513412D01*
X171409775Y-93513412D02*
X171838346Y-93513412D01*
X171838346Y-93513412D02*
X171981203Y-93441984D01*
X171981203Y-93441984D02*
X172052632Y-93370555D01*
X170552632Y-92156269D02*
X170481204Y-92084841D01*
X170481204Y-92084841D02*
X170338347Y-92013412D01*
X170338347Y-92013412D02*
X169981204Y-92013412D01*
X169981204Y-92013412D02*
X169838347Y-92084841D01*
X169838347Y-92084841D02*
X169766918Y-92156269D01*
X169766918Y-92156269D02*
X169695489Y-92299126D01*
X169695489Y-92299126D02*
X169695489Y-92441984D01*
X169695489Y-92441984D02*
X169766918Y-92656269D01*
X169766918Y-92656269D02*
X170624061Y-93513412D01*
X170624061Y-93513412D02*
X169695489Y-93513412D01*
X167981204Y-93441984D02*
X167766919Y-93513412D01*
X167766919Y-93513412D02*
X167409776Y-93513412D01*
X167409776Y-93513412D02*
X167266919Y-93441984D01*
X167266919Y-93441984D02*
X167195490Y-93370555D01*
X167195490Y-93370555D02*
X167124061Y-93227698D01*
X167124061Y-93227698D02*
X167124061Y-93084841D01*
X167124061Y-93084841D02*
X167195490Y-92941984D01*
X167195490Y-92941984D02*
X167266919Y-92870555D01*
X167266919Y-92870555D02*
X167409776Y-92799126D01*
X167409776Y-92799126D02*
X167695490Y-92727698D01*
X167695490Y-92727698D02*
X167838347Y-92656269D01*
X167838347Y-92656269D02*
X167909776Y-92584841D01*
X167909776Y-92584841D02*
X167981204Y-92441984D01*
X167981204Y-92441984D02*
X167981204Y-92299126D01*
X167981204Y-92299126D02*
X167909776Y-92156269D01*
X167909776Y-92156269D02*
X167838347Y-92084841D01*
X167838347Y-92084841D02*
X167695490Y-92013412D01*
X167695490Y-92013412D02*
X167338347Y-92013412D01*
X167338347Y-92013412D02*
X167124061Y-92084841D01*
X165981205Y-92727698D02*
X166481205Y-92727698D01*
X166481205Y-93513412D02*
X166481205Y-92013412D01*
X166481205Y-92013412D02*
X165766919Y-92013412D01*
X165195491Y-92013412D02*
X165195491Y-93227698D01*
X165195491Y-93227698D02*
X165124062Y-93370555D01*
X165124062Y-93370555D02*
X165052634Y-93441984D01*
X165052634Y-93441984D02*
X164909776Y-93513412D01*
X164909776Y-93513412D02*
X164624062Y-93513412D01*
X164624062Y-93513412D02*
X164481205Y-93441984D01*
X164481205Y-93441984D02*
X164409776Y-93370555D01*
X164409776Y-93370555D02*
X164338348Y-93227698D01*
X164338348Y-93227698D02*
X164338348Y-92013412D01*
X162695490Y-92013412D02*
X162195490Y-93513412D01*
X162195490Y-93513412D02*
X161695490Y-92013412D01*
X160409776Y-93513412D02*
X161266919Y-93513412D01*
X160838348Y-93513412D02*
X160838348Y-92013412D01*
X160838348Y-92013412D02*
X160981205Y-92227698D01*
X160981205Y-92227698D02*
X161124062Y-92370555D01*
X161124062Y-92370555D02*
X161266919Y-92441984D01*
X159766920Y-93370555D02*
X159695491Y-93441984D01*
X159695491Y-93441984D02*
X159766920Y-93513412D01*
X159766920Y-93513412D02*
X159838348Y-93441984D01*
X159838348Y-93441984D02*
X159766920Y-93370555D01*
X159766920Y-93370555D02*
X159766920Y-93513412D01*
X158266919Y-93513412D02*
X159124062Y-93513412D01*
X158695491Y-93513412D02*
X158695491Y-92013412D01*
X158695491Y-92013412D02*
X158838348Y-92227698D01*
X158838348Y-92227698D02*
X158981205Y-92370555D01*
X158981205Y-92370555D02*
X159124062Y-92441984D01*
X176195489Y-95928328D02*
X176195489Y-94428328D01*
X176195489Y-94428328D02*
X175838346Y-94428328D01*
X175838346Y-94428328D02*
X175624060Y-94499757D01*
X175624060Y-94499757D02*
X175481203Y-94642614D01*
X175481203Y-94642614D02*
X175409774Y-94785471D01*
X175409774Y-94785471D02*
X175338346Y-95071185D01*
X175338346Y-95071185D02*
X175338346Y-95285471D01*
X175338346Y-95285471D02*
X175409774Y-95571185D01*
X175409774Y-95571185D02*
X175481203Y-95714042D01*
X175481203Y-95714042D02*
X175624060Y-95856900D01*
X175624060Y-95856900D02*
X175838346Y-95928328D01*
X175838346Y-95928328D02*
X176195489Y-95928328D01*
X174124060Y-95856900D02*
X174266917Y-95928328D01*
X174266917Y-95928328D02*
X174552632Y-95928328D01*
X174552632Y-95928328D02*
X174695489Y-95856900D01*
X174695489Y-95856900D02*
X174766917Y-95714042D01*
X174766917Y-95714042D02*
X174766917Y-95142614D01*
X174766917Y-95142614D02*
X174695489Y-94999757D01*
X174695489Y-94999757D02*
X174552632Y-94928328D01*
X174552632Y-94928328D02*
X174266917Y-94928328D01*
X174266917Y-94928328D02*
X174124060Y-94999757D01*
X174124060Y-94999757D02*
X174052632Y-95142614D01*
X174052632Y-95142614D02*
X174052632Y-95285471D01*
X174052632Y-95285471D02*
X174766917Y-95428328D01*
X173481203Y-95856900D02*
X173338346Y-95928328D01*
X173338346Y-95928328D02*
X173052632Y-95928328D01*
X173052632Y-95928328D02*
X172909775Y-95856900D01*
X172909775Y-95856900D02*
X172838346Y-95714042D01*
X172838346Y-95714042D02*
X172838346Y-95642614D01*
X172838346Y-95642614D02*
X172909775Y-95499757D01*
X172909775Y-95499757D02*
X173052632Y-95428328D01*
X173052632Y-95428328D02*
X173266918Y-95428328D01*
X173266918Y-95428328D02*
X173409775Y-95356900D01*
X173409775Y-95356900D02*
X173481203Y-95214042D01*
X173481203Y-95214042D02*
X173481203Y-95142614D01*
X173481203Y-95142614D02*
X173409775Y-94999757D01*
X173409775Y-94999757D02*
X173266918Y-94928328D01*
X173266918Y-94928328D02*
X173052632Y-94928328D01*
X173052632Y-94928328D02*
X172909775Y-94999757D01*
X172195489Y-95928328D02*
X172195489Y-94928328D01*
X172195489Y-94428328D02*
X172266917Y-94499757D01*
X172266917Y-94499757D02*
X172195489Y-94571185D01*
X172195489Y-94571185D02*
X172124060Y-94499757D01*
X172124060Y-94499757D02*
X172195489Y-94428328D01*
X172195489Y-94428328D02*
X172195489Y-94571185D01*
X170838346Y-94928328D02*
X170838346Y-96142614D01*
X170838346Y-96142614D02*
X170909774Y-96285471D01*
X170909774Y-96285471D02*
X170981203Y-96356900D01*
X170981203Y-96356900D02*
X171124060Y-96428328D01*
X171124060Y-96428328D02*
X171338346Y-96428328D01*
X171338346Y-96428328D02*
X171481203Y-96356900D01*
X170838346Y-95856900D02*
X170981203Y-95928328D01*
X170981203Y-95928328D02*
X171266917Y-95928328D01*
X171266917Y-95928328D02*
X171409774Y-95856900D01*
X171409774Y-95856900D02*
X171481203Y-95785471D01*
X171481203Y-95785471D02*
X171552631Y-95642614D01*
X171552631Y-95642614D02*
X171552631Y-95214042D01*
X171552631Y-95214042D02*
X171481203Y-95071185D01*
X171481203Y-95071185D02*
X171409774Y-94999757D01*
X171409774Y-94999757D02*
X171266917Y-94928328D01*
X171266917Y-94928328D02*
X170981203Y-94928328D01*
X170981203Y-94928328D02*
X170838346Y-94999757D01*
X170124060Y-94928328D02*
X170124060Y-95928328D01*
X170124060Y-95071185D02*
X170052631Y-94999757D01*
X170052631Y-94999757D02*
X169909774Y-94928328D01*
X169909774Y-94928328D02*
X169695488Y-94928328D01*
X169695488Y-94928328D02*
X169552631Y-94999757D01*
X169552631Y-94999757D02*
X169481203Y-95142614D01*
X169481203Y-95142614D02*
X169481203Y-95928328D01*
X168195488Y-95856900D02*
X168338345Y-95928328D01*
X168338345Y-95928328D02*
X168624060Y-95928328D01*
X168624060Y-95928328D02*
X168766917Y-95856900D01*
X168766917Y-95856900D02*
X168838345Y-95714042D01*
X168838345Y-95714042D02*
X168838345Y-95142614D01*
X168838345Y-95142614D02*
X168766917Y-94999757D01*
X168766917Y-94999757D02*
X168624060Y-94928328D01*
X168624060Y-94928328D02*
X168338345Y-94928328D01*
X168338345Y-94928328D02*
X168195488Y-94999757D01*
X168195488Y-94999757D02*
X168124060Y-95142614D01*
X168124060Y-95142614D02*
X168124060Y-95285471D01*
X168124060Y-95285471D02*
X168838345Y-95428328D01*
X166838346Y-95928328D02*
X166838346Y-94428328D01*
X166838346Y-95856900D02*
X166981203Y-95928328D01*
X166981203Y-95928328D02*
X167266917Y-95928328D01*
X167266917Y-95928328D02*
X167409774Y-95856900D01*
X167409774Y-95856900D02*
X167481203Y-95785471D01*
X167481203Y-95785471D02*
X167552631Y-95642614D01*
X167552631Y-95642614D02*
X167552631Y-95214042D01*
X167552631Y-95214042D02*
X167481203Y-95071185D01*
X167481203Y-95071185D02*
X167409774Y-94999757D01*
X167409774Y-94999757D02*
X167266917Y-94928328D01*
X167266917Y-94928328D02*
X166981203Y-94928328D01*
X166981203Y-94928328D02*
X166838346Y-94999757D01*
X164981203Y-95928328D02*
X164981203Y-94428328D01*
X164981203Y-94999757D02*
X164838346Y-94928328D01*
X164838346Y-94928328D02*
X164552631Y-94928328D01*
X164552631Y-94928328D02*
X164409774Y-94999757D01*
X164409774Y-94999757D02*
X164338346Y-95071185D01*
X164338346Y-95071185D02*
X164266917Y-95214042D01*
X164266917Y-95214042D02*
X164266917Y-95642614D01*
X164266917Y-95642614D02*
X164338346Y-95785471D01*
X164338346Y-95785471D02*
X164409774Y-95856900D01*
X164409774Y-95856900D02*
X164552631Y-95928328D01*
X164552631Y-95928328D02*
X164838346Y-95928328D01*
X164838346Y-95928328D02*
X164981203Y-95856900D01*
X163766917Y-94928328D02*
X163409774Y-95928328D01*
X163052631Y-94928328D02*
X163409774Y-95928328D01*
X163409774Y-95928328D02*
X163552631Y-96285471D01*
X163552631Y-96285471D02*
X163624060Y-96356900D01*
X163624060Y-96356900D02*
X163766917Y-96428328D01*
X176195489Y-98343244D02*
X176195489Y-96843244D01*
X176195489Y-96843244D02*
X175695489Y-97914673D01*
X175695489Y-97914673D02*
X175195489Y-96843244D01*
X175195489Y-96843244D02*
X175195489Y-98343244D01*
X173838346Y-98343244D02*
X173838346Y-97557530D01*
X173838346Y-97557530D02*
X173909774Y-97414673D01*
X173909774Y-97414673D02*
X174052631Y-97343244D01*
X174052631Y-97343244D02*
X174338346Y-97343244D01*
X174338346Y-97343244D02*
X174481203Y-97414673D01*
X173838346Y-98271816D02*
X173981203Y-98343244D01*
X173981203Y-98343244D02*
X174338346Y-98343244D01*
X174338346Y-98343244D02*
X174481203Y-98271816D01*
X174481203Y-98271816D02*
X174552631Y-98128958D01*
X174552631Y-98128958D02*
X174552631Y-97986101D01*
X174552631Y-97986101D02*
X174481203Y-97843244D01*
X174481203Y-97843244D02*
X174338346Y-97771816D01*
X174338346Y-97771816D02*
X173981203Y-97771816D01*
X173981203Y-97771816D02*
X173838346Y-97700387D01*
X173338345Y-97343244D02*
X172766917Y-97343244D01*
X173124060Y-96843244D02*
X173124060Y-98128958D01*
X173124060Y-98128958D02*
X173052631Y-98271816D01*
X173052631Y-98271816D02*
X172909774Y-98343244D01*
X172909774Y-98343244D02*
X172766917Y-98343244D01*
X172266917Y-98343244D02*
X172266917Y-96843244D01*
X171624060Y-98343244D02*
X171624060Y-97557530D01*
X171624060Y-97557530D02*
X171695488Y-97414673D01*
X171695488Y-97414673D02*
X171838345Y-97343244D01*
X171838345Y-97343244D02*
X172052631Y-97343244D01*
X172052631Y-97343244D02*
X172195488Y-97414673D01*
X172195488Y-97414673D02*
X172266917Y-97486101D01*
X170909774Y-98343244D02*
X170909774Y-97343244D01*
X170909774Y-96843244D02*
X170981202Y-96914673D01*
X170981202Y-96914673D02*
X170909774Y-96986101D01*
X170909774Y-96986101D02*
X170838345Y-96914673D01*
X170838345Y-96914673D02*
X170909774Y-96843244D01*
X170909774Y-96843244D02*
X170909774Y-96986101D01*
X169624059Y-98271816D02*
X169766916Y-98343244D01*
X169766916Y-98343244D02*
X170052631Y-98343244D01*
X170052631Y-98343244D02*
X170195488Y-98271816D01*
X170195488Y-98271816D02*
X170266916Y-98128958D01*
X170266916Y-98128958D02*
X170266916Y-97557530D01*
X170266916Y-97557530D02*
X170195488Y-97414673D01*
X170195488Y-97414673D02*
X170052631Y-97343244D01*
X170052631Y-97343244D02*
X169766916Y-97343244D01*
X169766916Y-97343244D02*
X169624059Y-97414673D01*
X169624059Y-97414673D02*
X169552631Y-97557530D01*
X169552631Y-97557530D02*
X169552631Y-97700387D01*
X169552631Y-97700387D02*
X170266916Y-97843244D01*
X168266917Y-97343244D02*
X168266917Y-98343244D01*
X168909774Y-97343244D02*
X168909774Y-98128958D01*
X168909774Y-98128958D02*
X168838345Y-98271816D01*
X168838345Y-98271816D02*
X168695488Y-98343244D01*
X168695488Y-98343244D02*
X168481202Y-98343244D01*
X168481202Y-98343244D02*
X168338345Y-98271816D01*
X168338345Y-98271816D02*
X168266917Y-98200387D01*
X166552631Y-96843244D02*
X165552631Y-96843244D01*
X165552631Y-96843244D02*
X166552631Y-98343244D01*
X166552631Y-98343244D02*
X165552631Y-98343244D01*
X164981203Y-98343244D02*
X164981203Y-97343244D01*
X164981203Y-96843244D02*
X165052631Y-96914673D01*
X165052631Y-96914673D02*
X164981203Y-96986101D01*
X164981203Y-96986101D02*
X164909774Y-96914673D01*
X164909774Y-96914673D02*
X164981203Y-96843244D01*
X164981203Y-96843244D02*
X164981203Y-96986101D01*
X163695488Y-98271816D02*
X163838345Y-98343244D01*
X163838345Y-98343244D02*
X164124060Y-98343244D01*
X164124060Y-98343244D02*
X164266917Y-98271816D01*
X164266917Y-98271816D02*
X164338345Y-98128958D01*
X164338345Y-98128958D02*
X164338345Y-97557530D01*
X164338345Y-97557530D02*
X164266917Y-97414673D01*
X164266917Y-97414673D02*
X164124060Y-97343244D01*
X164124060Y-97343244D02*
X163838345Y-97343244D01*
X163838345Y-97343244D02*
X163695488Y-97414673D01*
X163695488Y-97414673D02*
X163624060Y-97557530D01*
X163624060Y-97557530D02*
X163624060Y-97700387D01*
X163624060Y-97700387D02*
X164338345Y-97843244D01*
X162338346Y-97343244D02*
X162338346Y-98557530D01*
X162338346Y-98557530D02*
X162409774Y-98700387D01*
X162409774Y-98700387D02*
X162481203Y-98771816D01*
X162481203Y-98771816D02*
X162624060Y-98843244D01*
X162624060Y-98843244D02*
X162838346Y-98843244D01*
X162838346Y-98843244D02*
X162981203Y-98771816D01*
X162338346Y-98271816D02*
X162481203Y-98343244D01*
X162481203Y-98343244D02*
X162766917Y-98343244D01*
X162766917Y-98343244D02*
X162909774Y-98271816D01*
X162909774Y-98271816D02*
X162981203Y-98200387D01*
X162981203Y-98200387D02*
X163052631Y-98057530D01*
X163052631Y-98057530D02*
X163052631Y-97628958D01*
X163052631Y-97628958D02*
X162981203Y-97486101D01*
X162981203Y-97486101D02*
X162909774Y-97414673D01*
X162909774Y-97414673D02*
X162766917Y-97343244D01*
X162766917Y-97343244D02*
X162481203Y-97343244D01*
X162481203Y-97343244D02*
X162338346Y-97414673D01*
X161409774Y-98343244D02*
X161552631Y-98271816D01*
X161552631Y-98271816D02*
X161624060Y-98128958D01*
X161624060Y-98128958D02*
X161624060Y-96843244D01*
X160266917Y-98271816D02*
X160409774Y-98343244D01*
X160409774Y-98343244D02*
X160695489Y-98343244D01*
X160695489Y-98343244D02*
X160838346Y-98271816D01*
X160838346Y-98271816D02*
X160909774Y-98128958D01*
X160909774Y-98128958D02*
X160909774Y-97557530D01*
X160909774Y-97557530D02*
X160838346Y-97414673D01*
X160838346Y-97414673D02*
X160695489Y-97343244D01*
X160695489Y-97343244D02*
X160409774Y-97343244D01*
X160409774Y-97343244D02*
X160266917Y-97414673D01*
X160266917Y-97414673D02*
X160195489Y-97557530D01*
X160195489Y-97557530D02*
X160195489Y-97700387D01*
X160195489Y-97700387D02*
X160909774Y-97843244D01*
X159552632Y-98343244D02*
X159552632Y-97343244D01*
X159552632Y-97628958D02*
X159481203Y-97486101D01*
X159481203Y-97486101D02*
X159409775Y-97414673D01*
X159409775Y-97414673D02*
X159266917Y-97343244D01*
X159266917Y-97343244D02*
X159124060Y-97343244D01*
X176016917Y-114300828D02*
X176016917Y-115372257D01*
X176016917Y-115372257D02*
X176088346Y-115586542D01*
X176088346Y-115586542D02*
X176231203Y-115729400D01*
X176231203Y-115729400D02*
X176445489Y-115800828D01*
X176445489Y-115800828D02*
X176588346Y-115800828D01*
X174588346Y-115800828D02*
X175302632Y-115800828D01*
X175302632Y-115800828D02*
X175302632Y-114300828D01*
X173231203Y-115657971D02*
X173302631Y-115729400D01*
X173302631Y-115729400D02*
X173516917Y-115800828D01*
X173516917Y-115800828D02*
X173659774Y-115800828D01*
X173659774Y-115800828D02*
X173874060Y-115729400D01*
X173874060Y-115729400D02*
X174016917Y-115586542D01*
X174016917Y-115586542D02*
X174088346Y-115443685D01*
X174088346Y-115443685D02*
X174159774Y-115157971D01*
X174159774Y-115157971D02*
X174159774Y-114943685D01*
X174159774Y-114943685D02*
X174088346Y-114657971D01*
X174088346Y-114657971D02*
X174016917Y-114515114D01*
X174016917Y-114515114D02*
X173874060Y-114372257D01*
X173874060Y-114372257D02*
X173659774Y-114300828D01*
X173659774Y-114300828D02*
X173516917Y-114300828D01*
X173516917Y-114300828D02*
X173302631Y-114372257D01*
X173302631Y-114372257D02*
X173231203Y-114443685D01*
X172159774Y-114300828D02*
X172159774Y-115372257D01*
X172159774Y-115372257D02*
X172231203Y-115586542D01*
X172231203Y-115586542D02*
X172374060Y-115729400D01*
X172374060Y-115729400D02*
X172588346Y-115800828D01*
X172588346Y-115800828D02*
X172731203Y-115800828D01*
X170731203Y-115800828D02*
X171445489Y-115800828D01*
X171445489Y-115800828D02*
X171445489Y-114300828D01*
X169374060Y-115657971D02*
X169445488Y-115729400D01*
X169445488Y-115729400D02*
X169659774Y-115800828D01*
X169659774Y-115800828D02*
X169802631Y-115800828D01*
X169802631Y-115800828D02*
X170016917Y-115729400D01*
X170016917Y-115729400D02*
X170159774Y-115586542D01*
X170159774Y-115586542D02*
X170231203Y-115443685D01*
X170231203Y-115443685D02*
X170302631Y-115157971D01*
X170302631Y-115157971D02*
X170302631Y-114943685D01*
X170302631Y-114943685D02*
X170231203Y-114657971D01*
X170231203Y-114657971D02*
X170159774Y-114515114D01*
X170159774Y-114515114D02*
X170016917Y-114372257D01*
X170016917Y-114372257D02*
X169802631Y-114300828D01*
X169802631Y-114300828D02*
X169659774Y-114300828D01*
X169659774Y-114300828D02*
X169445488Y-114372257D01*
X169445488Y-114372257D02*
X169374060Y-114443685D01*
X168302631Y-114300828D02*
X168302631Y-115372257D01*
X168302631Y-115372257D02*
X168374060Y-115586542D01*
X168374060Y-115586542D02*
X168516917Y-115729400D01*
X168516917Y-115729400D02*
X168731203Y-115800828D01*
X168731203Y-115800828D02*
X168874060Y-115800828D01*
X166874060Y-115800828D02*
X167588346Y-115800828D01*
X167588346Y-115800828D02*
X167588346Y-114300828D01*
X165516917Y-115657971D02*
X165588345Y-115729400D01*
X165588345Y-115729400D02*
X165802631Y-115800828D01*
X165802631Y-115800828D02*
X165945488Y-115800828D01*
X165945488Y-115800828D02*
X166159774Y-115729400D01*
X166159774Y-115729400D02*
X166302631Y-115586542D01*
X166302631Y-115586542D02*
X166374060Y-115443685D01*
X166374060Y-115443685D02*
X166445488Y-115157971D01*
X166445488Y-115157971D02*
X166445488Y-114943685D01*
X166445488Y-114943685D02*
X166374060Y-114657971D01*
X166374060Y-114657971D02*
X166302631Y-114515114D01*
X166302631Y-114515114D02*
X166159774Y-114372257D01*
X166159774Y-114372257D02*
X165945488Y-114300828D01*
X165945488Y-114300828D02*
X165802631Y-114300828D01*
X165802631Y-114300828D02*
X165588345Y-114372257D01*
X165588345Y-114372257D02*
X165516917Y-114443685D01*
X164445488Y-114300828D02*
X164445488Y-115372257D01*
X164445488Y-115372257D02*
X164516917Y-115586542D01*
X164516917Y-115586542D02*
X164659774Y-115729400D01*
X164659774Y-115729400D02*
X164874060Y-115800828D01*
X164874060Y-115800828D02*
X165016917Y-115800828D01*
X163016917Y-115800828D02*
X163731203Y-115800828D01*
X163731203Y-115800828D02*
X163731203Y-114300828D01*
X161659774Y-115657971D02*
X161731202Y-115729400D01*
X161731202Y-115729400D02*
X161945488Y-115800828D01*
X161945488Y-115800828D02*
X162088345Y-115800828D01*
X162088345Y-115800828D02*
X162302631Y-115729400D01*
X162302631Y-115729400D02*
X162445488Y-115586542D01*
X162445488Y-115586542D02*
X162516917Y-115443685D01*
X162516917Y-115443685D02*
X162588345Y-115157971D01*
X162588345Y-115157971D02*
X162588345Y-114943685D01*
X162588345Y-114943685D02*
X162516917Y-114657971D01*
X162516917Y-114657971D02*
X162445488Y-114515114D01*
X162445488Y-114515114D02*
X162302631Y-114372257D01*
X162302631Y-114372257D02*
X162088345Y-114300828D01*
X162088345Y-114300828D02*
X161945488Y-114300828D01*
X161945488Y-114300828D02*
X161731202Y-114372257D01*
X161731202Y-114372257D02*
X161659774Y-114443685D01*
%LPC*%
D11*
%TO.C,J3*%
X167600000Y-89300000D03*
D12*
X169200000Y-87300000D03*
D13*
X171700000Y-87300000D03*
X174200000Y-87300000D03*
X176700000Y-87300000D03*
X179200000Y-87300000D03*
%TD*%
D14*
%TO.C,J4*%
X179000000Y-113780000D03*
D15*
X179000000Y-111240000D03*
X179000000Y-108700000D03*
X179000000Y-106160000D03*
X179000000Y-103620000D03*
X179000000Y-101080000D03*
X179000000Y-98540000D03*
X179000000Y-96000000D03*
%TD*%
D14*
%TO.C,J1*%
X155000000Y-113780000D03*
D15*
X155000000Y-111240000D03*
X155000000Y-108700000D03*
X155000000Y-106160000D03*
X155000000Y-103620000D03*
X155000000Y-101080000D03*
X155000000Y-98540000D03*
X155000000Y-96000000D03*
%TD*%
D11*
%TO.C,J2*%
X152400000Y-89475000D03*
D12*
X154000000Y-87475000D03*
D13*
X156500000Y-87475000D03*
X159000000Y-87475000D03*
%TD*%
%LPD*%
M02*
